<svg xmlns="http://www.w3.org/2000/svg" version="1.2" viewBox="0 0 388 622"><g id="BACKGROUND"><path id="&lt;Path&gt;" fill="#fff" d="M702 1000H-298V0H702z"/></g><g id="OBJECTS"><g id="&lt;Group&gt;"><path id="&lt;Compound Path&gt;" fill-rule="evenodd" d="M43.2 386.5c.4-1.9.2-3.7.2-5.6q0-.3.1-.6 0-1.6.1-3.3c.3-.2.5-.4.3-.8q.4-4.8.9-9.6 0-.3.1-.6c.1-.2.2-.4.2-.6.1-.1 0-.2-.1-.3.4-.3.5-.7.4-1.2l.2-1.2c.6-.6.7-1.4.6-2.2q.1-.5.2-.9c.4-.3.4-.7.4-1.1.2-.5.4-1.1.3-1.6.5-.5.5-1.2.5-1.8.2-2.2.9-4.3 1.6-6.3.5-.5.5-1.2.5-1.9l.3-.6c0-.1-.1-.2-.2-.3.6-.5.6-1.1.5-1.8q1.3-4.4 2-8.9 0-.3.1-.6c.4-.7.6-1.3.5-2.1q.1-.7.2-1.3c.2-.3.3-.6.1-1 .6-.7.6-1.6.5-2.4.4-.9.7-1.8.6-2.8q0-.3.1-.6c.2-.5.5-1 .2-1.6.7-.7.6-1.6.6-2.5.1-.2.2-.4.2-.6.1-.1-.1-.2-.1-.3.5-.5.5-1.2.4-1.8.3-.5.6-1 .3-1.6.4-.3.4-.7.4-1.2.2-.5.4-1 .2-1.6.5-.5.5-1.1.5-1.8q.1-.5.1-1.1.5-.3.3-.9l.2-1.4q0-.3.1-.6c.3-.9.6-1.8.5-2.8q.4-1 .2-2c.4-1.1.7-2.2.5-3.4l.2-1.4c.5-1.3.7-2.7.5-4.1.3-1.3.5-2.7.3-4 .3-.5.4-1 .2-1.5q.3-.2.1-.6.5-2.2.3-4.6c.1 0 .2-.1.2-.2s0-.3-.1-.5c.4-.7.4-1.4.3-2.2q.4-1.7.2-3.4c.6-4.4.5-8.9.6-13.4q0-9.3.1-18.5l.2-.3-.1-.2c.5-.9.5-1.9.4-3q.1-.3.1-.6c.3-.9.7-1.8.6-2.8.3-1.1.9-2.2.8-3.4q.3-.2.1-.5c.6-.6.8-1.4.6-2.2q.3-2 1.5-3.7c.6-.4.7-1.1.7-1.7 1.2-4 3-7.7 5.3-11.3.6-.9 1.7-1.4 2-2.5.5-.2.9-.5.8-1.2q.3-.3.6-.7c.5.1.7-.2.8-.6v.1-.1q.6-.1.7-.6c.4-.2.6-.3.5-.8l1.4-1.4c.5.2.7-.1.9-.4.5-.2.9-.4 1-.9 4.2-4 9.4-6.5 14.6-8.8 2.9-1.2 5.6-2.8 8.7-3.6q.4 0 .7-.1c.5.1 1-.1 1.4-.5.6.1 1.2 0 1.6-.6.4.1.8 0 1.1-.3.6-.2 1.4-.1 1.5-1.1 2.2-.1 4.1-1.1 6-2q1 .2 1.7-.6c5-2.4 10.3-4.6 15.2-7.3 2.6-1.4 5.5-2.3 7.6-4.5.4.1.7-.1.9-.5q.4.1.4-.2c.4 0 .7-.1.6-.5 3.2-2.5 6.2-5.2 8.9-8.3.6-.2.9-.6.8-1.3 2.5-3.6 4-7.7 5.5-11.8.6-.5.6-1.1.5-1.8.5-.8.7-1.7.6-2.7v-.7c.8-2.3 1-4.6 1-7 .3-.3.3-.7.2-1.1.5-3 .6-6.1-.2-9 0-.1.2-.2.1-.3 0-.2-.1-.3-.2-.5-.1-2 .1-4-.7-5.9q-.1-.3-.1-.7.2-1.1-.3-2.1c.1-.3.1-.5-.3-.5q-1.1-1.7-2.2-3.5c.2-1.1.2-2.1-1.2-2.1-.7-.6-1.4-.5-2.1-.5q-.3 0-.7-.1c-2.9-.7-5.7-1.7-7.7-4.3-.5-.7-1.2-1.2-1.9-1.8q0-.6-.5-.8-.2-.3-.3-.7c0-.3 0-.5-.4-.4-.6-.4-.7-1-.8-1.6.4-.6.2-1.3 0-2 .4-2.6-.2-5.5 1.5-7.8.4-.3.6-.6.5-1.1.8-1.4 1.5-2.8 2.4-4.2.3-.6.8-1.1.2-1.8-.8-.8-.1-1.9-.5-2.8q-.1-.3-.1-.7c.1-1-.3-1.8-.6-2.7q-.1-.3-.1-.7c0-.5 0-1-.3-1.5 0 0 .1-.1.1-.2-.1-.1-.2-.3-.3-.4-.1-4.6-.7-9.1-.1-13.7.4-2.6.9-5 2-7.3q.1-.4.2-.7v-.2c.5-.3.6-.7.5-1.1 2.6-8.4 6.5-15.9 13.7-21.2.7.2 1.1-.2 1.4-.6 4-2.4 8.4-3.8 12.7-5.6 2.9-1.2 6-1.8 9.1-2.7h.6l1.4-.2.3.1.3-.1q5.5.1 11 .1.6.1 1.3.1c.7.2 1.4.6 2.2.3.6.5 1.2.5 1.9.5.2.2.5.4.9.2.3.4.7.4 1.1.4.7.3 1.3.7 2.1.6q.3 0 .7.1c.8.8 1.9.8 2.9.8 1 .7 2.1 1 3.2 1.2 3.2 1.7 6.8 2.6 10.2 4.1 4.6 2.1 10.9 6.8 13.7 11-.1.4.1.6.5.7.2.5.3 1 .8 1.3q1.3 4.4 2.7 8.8.1.4.1.7c-.1.5 0 1 .3 1.5 0 .1-.1.2-.1.2.1.2.2.3.3.4q-.1.4.1.7.1.3.1.6c-.1 1.1 0 2.1.5 3.1l-.1.1.2.2v1.4c-.1.7-.1 1.3.1 2v13l-.2 2c-.7 1.3-1.1 2.7.8 3.4.3.5.7.8 1.2 1 2.3 2.9 3.6 6.3 4.3 9.9q-.2.3.1.6v2.1q-.3 1.3-.5 2.7c-.6 2.7-2.1 5-3.1 7.6-.5.2-.8.7-1 1.2q-1.2 1.3-2.5 2.5c-.5.2-.9.5-1.2 1-2.7 1-4.5 3.6-7.4 4.2-.5.1-.7.5-.8 1-.7 2.8-2 5.4-2 8.4q-.3 1 0 2-.5 4.5 0 8.9c-.2 1.3-.2 2.7.1 4 .2 5.8 1.5 11.3 4.2 16.5 2.2 4.2 5.3 7.5 9.7 9.4 5.1 2.3 10.3 4.4 15.9 5.3q.3 0 .6.1c3.9 1.6 8.1 2.4 12.2 3.4 12.3 3.2 23.9 8.1 34.6 15 10.8 7 16.9 17.1 19.2 29.6q1.5 7.9 1.3 15.9c-.2 10.2-.4 20.4 0 30.6.1 1.9.3 3.8 1 5.6.7 1.7 1.3 3.4 2 5.1 6.6 14.6 10.2 29.9 11.5 45.8.6 7.6.2 15.2 1.2 22.8.1 1.2.3 2.5.6 3.7 3.7 14.1 6.6 28.5 7.9 43 1.1 11.4.7 22.9.7 34.3-.1 11.4-1 22.7-1.9 34-.5 6-.5 12-.4 18 .2 6.6.1 13.1-.5 19.7-.7 8.2-.1 16.5.8 24.7.9 8.9 3 17.7 1.8 26.7-.9 6.2-2.6 11.9-6.3 17-1.3 1.8-2.7 3.5-4.8 4.2-1.5.5-2.5 1.4-3.2 2.7-.1.2-.3.4-.4.6-4.2 6.2-10 9.7-17.6 9.9-3.3.1-6.5.4-9.8.1-1.5-.1-2.7-.9-4.3-1.3-.2 2.7.5 5.3.9 7.8 2.1 12.3 3.5 24.7 4.4 37.1.3 5.3.2 10.7.4 16 .1 1.9-1.7 3.2-3.7 3.8-.4-.1-.6.1-.7.5-.4.1-.8.2-1 .6-1.2.2-2.2.7-3.1 1.4-.6 0-1.3.1-1.7.7-1-.3-1.6.5-2.3.9-.8-.2-1.5-.4-2.1.4-.7.2-1.4.2-2 .8-.7 0-1.3 0-1.8.6h-.2c-.7 0-1.4 0-1.9.6-.3-.3-.6-.1-.8.2-.6 0-1.2-.2-1.2.7-.2 1 .2 1.8.5 2.7q.1.3.1.7c.3 2.5.6 5 1.3 7.5q0 .6.1 1.3c-.1 2.1.2 4.1.6 6.2q-.3 2 .1 4c-.2 4.1-.1 8.2.6 12.3q-.3 1 .1 2 0 .7.1 1.4-.2.3 0 .6c-.1 1 .2 1.9.4 2.8q.1.7.1 1.3c-.1 1.2.2 2.4.6 3.5-.1.6-.1 1.3.5 1.8-.3.3-.1.6.1.9 0 .6 0 1.3.5 1.8.3 3.6 1.7 6.9 2.8 10.3 1.4 4.6 2.8 9.2 4.3 13.7-.1.7-.1 1.4.4 1.9-.2.5.1 1 .3 1.5-.1.7-.1 1.4.4 1.9-.2.5 0 1 .3 1.5v.7c-.1 1.2.2 2.3.6 3.4q-.2 1 .2 2 .3 2.4.7 4.8-.2.4 0 .7c-.1 1.1.2 2.3.5 3.4q-.2 1 .1 2c-.1 1.4.1 2.8.5 4.1q-.2 1 .1 2c.2 3.2.3 6.3.5 9.4.3 5.6-.4 11-.5 16.5q0 .4-.1.7c-.3 1.1-.6 2.2-.5 3.4q0 1-.1 2c-.4 1.4-.8 2.7-.6 4.1q0 .4-.1.7c-.2.7-.4 1.5-.1 2.3-.8.9-.6 2.1-.6 3.1-.4 1.4-.8 2.7-.6 4.1q0 .4-.1.7c-.3 1.1-.7 2.2-.5 3.4-.4 1.6-.9 3.1-.8 4.8-.6 1.4-.9 2.8-.8 4.3-.7.7-.7 1.6-.6 2.5-1.1 1.7-1 3.6-1.3 5.4v.7c-.5 1.1-.8 2.2-.7 3.4-.3.9-.6 1.8-.5 2.7q-.1.7-.1 1.4c-.3.7-.4 1.3-.2 2-.5 1.4-.6 2.7-.4 4.2-.3 1.3-.4 2.6-.2 4-.7 4.1-.8 8.2-.6 12.3q-.4 2-.1 4c-.2 2.5-.2 5 .1 7.5q-.3 1 0 2-.2 4.8.6 9.6.1.7.1 1.3 0 .7.1 1.4-.2.4 0 .6c-.2 1.7.2 3.3.5 4.9q.1.6.1 1.3c-.2 1.4.1 2.8.6 4.1q0 .7.1 1.3c-.2 1.4.1 2.8.6 4.1q-.3 1.1.1 2c-.1 1 .1 1.9.5 2.8q-.2 1.4.3 2.7-.2.8.3 1.4-.2 1 .2 2c.3 2.5.6 5.1 1.3 7.5q.1.3.1.7c-.1.9.2 1.8.6 2.7v.7c-.1 1.2.3 2.3.7 3.4-.1.7-.1 1.3.4 1.8-.3.4-.1.6.1.9q.2.7.3 1.3c.9 4 1.8 7.9 3.2 11.6q.1.7.1 1.4-.1 1.7.5 3.4 0 2 .1 4.1-.7 1.6-.6 3.4 0 .3-.1.7c-1.3 2.1-2.1 4.5-4.1 6.1q-.6.1-.8.6c-2.6 1.4-5.1 2.9-7.4 4.7-.6 0-1.1.2-1.4.7-1.1-.1-1.6.7-2.2 1.4q-6.8 3.4-14.1 5.6-.3 0-.6.1-4.5.3-8.9.6-.7-.4-1.4-.1c-.5-.3-1.1-.3-1.6-.1-.3-.4-.6-.4-1-.3q-.7-.1-1.5-.2-.3 0-.6-.1c-3.2-.2-5.3-2.1-6.9-4.7 0-.5-.1-.9-.5-1.1l-.1-.3c0-.5-.2-.8-.7-.7q-1-1.7-2.1-3.4l-.8-4q.2-2.9.3-5.7c.7-.8.6-1.7.6-2.5l.3-.6c0-.1-.1-.2-.1-.3.4-.3.4-.7.3-1.2.8-4.3 2.5-8.5 2.8-12.9q.1-.4.1-.7c.5-.6.6-1.3.5-2q.1-.4.1-.7l2.2-9.8c.4-.3.5-.6.3-1.1l.2-1.4v-.6c.5-1.6.8-3.2.7-4.8v-.7c.3-.7.5-1.4.3-2.2.3-.3.4-.7.2-1.2q.1-.7.1-1.4c.4-1.3.6-2.6.6-4 .7-9.3.7-18.6-.2-27.9-.1-1.6 0-3.1-.8-4.6.3-.5 0-1-.2-1.6q-.1-.3-.1-.6c.2-1.2-.2-2.3-.6-3.4v-.7c-.4-3.9-.4-7.8-1.2-11.6.2-.9.1-1.8-.2-2.7q-.1-.7-.1-1.4c.1-.4.1-.8-.3-1.1.3-.6 0-1.1-.2-1.6q-.1-.7-.1-1.3c.1-1.2-.1-2.4-.6-3.5q-.1-.6-.1-1.3c-.4-3.5-.9-6.9-2-10.2.1-.9.2-1.8-.5-2.5 0-2.6-.6-5.2-1.4-7.7.1-.5-.3-.7-.7-.8-.2-.9.6-1.8 0-2.6l-.2-1.4c.1-.7-.1-1.4-.5-2q-.1-.4-.1-.7c.1-.5 0-1-.3-1.5 0-.1.1-.2.1-.2-.1-.2-.2-.3-.3-.4q.1-.4-.1-.6c0-.9 0-1.7-.6-2.4q.1-2.3-.8-4.4c.1-.9.1-1.7-.5-2.4l-.2-1q0-.4-.1-.7c-.2-2.3-.5-4.6-1.2-6.8q-.1-.4-.1-.7.2-1.8-.6-3.4 0-.3-.1-.7c.2-1.4-.1-2.7-.6-4.1q0-.3-.1-.6c.2-1.7-.4-3.2-.7-4.8.1-.5.1-.9-.3-1.2.3-.5 0-1-.2-1.5 0-1.1.1-2.2-.6-3.2.3-.5.1-1.1-.1-1.6q-.1-.3-.1-.7.2-1-.2-2.1c.1-.4.1-.7-.3-1 .3-.6.1-1.1-.1-1.6q0-.4-.1-.7.2-1.1-.1-2.1c.1-.6.1-1.2-.4-1.7 0-2.6.1-5.2-.6-7.8.2-1.4 0-2.7-.3-4 .1-1 .1-2-.2-2.9l.1-.2-.2-.2c-.2-3.7 0-7.4-.9-11.1q.3-1-.1-2c.1-1.1.1-2.3-.4-3.4.2-.9 0-1.8-.3-2.7.2-1.4-.1-2.8-.6-4.1q-.1-.7-.1-1.3c.1-1-.2-1.9-.6-2.8q0-.3-.1-.7c.2-1.4-.3-2.7-.6-4.1 0-.6.1-1.3-.5-1.8.2-1 0-2-.4-2.9.1-.5 0-1-.4-1.4.1-1.2 0-2.3-.7-3.4.1-.8.1-1.7-.5-2.4l-.2-1q-.1-.3-.1-.6c-1-2.7-2.1-5.4-2.6-8.2.2-.9.1-1.7-.5-2.4-1.2-1.7-1.1-3.9-1.6-5.8q0-.3-.1-.6.2-.9-.4-1.4c0-.7 0-1.4-.6-1.9.3-.3.1-.6-.1-.9 0-.6 0-1.3-.5-1.8v-.6c0-.1-.1-.2-.2-.3q-.1-.6-.2-1.3.2-1.1-.5-2.1-.1-.3-.1-.6c.1-1-.1-1.9-.6-2.8q-.1-.3-.1-.6c-.2-1.9-.5-3.8-1.3-5.5q0-.3-.1-.7c.2-1.2-.4-2.3-.7-3.4 0-.4 0-.8-.4-1.1l.1-.1-.2-.1-.2-1.4q0-.7-.1-1.4c.3-.6.3-1.2-.3-1.6-.4-.5-.8-1.3-1.4-1.3-3.1 0-5.8-1.8-8.8-2-1.1 0-2.3-.8-3-1.8-.4-.6.2-.8.3-1.1.4-.2.6-.5.5-1 .1-.8 0-1.5-.6-2 0-1.1.1-2.2-.6-3.1q-.8-3.3-1.5-6.5-.1-.3-.1-.6c.1-.8-.3-1.5-.6-2.1 0-.5 0-.9-.4-1.2.2-.3.1-.6-.2-.8 0-.7.1-1.4-.5-1.9.3-.6 0-1.1-.3-1.6.1-.6.2-1.3-.4-1.8.4-.6 0-1.1-.2-1.6q-.1-.3-.1-.6c.1-1-.2-1.9-.6-2.8 0-.7 0-1.5-.6-2.1 0-.9 0-1.8-.7-2.6q-.1-.7-.2-1.3c0-1.3-.4-2.4-.7-3.5.1-.4 0-.8-.4-1.1.2-.3.1-.6-.1-.9l-.2-1.4c.2-.9-.1-1.8-.5-2.7q-.1-.7-.2-1.3c.2-.8.1-1.5-.4-2.1q-.1-.7-.2-1.3.2-1.2-.5-2.1-.1-.3-.1-.7c.1-1-.2-1.9-.7-2.7q0-.3-.1-.7c.1-1.2-.4-2.3-.7-3.4.1-.7-.1-1.4-.5-2 .1-1.2-.2-2.4-.7-3.4.1-.9.1-1.7-.5-2.4 0-1.2 0-2.6-.8-3.4-1-1-.1-2.2-.7-3.1q-.1-.3-.1-.6c.1-1-.2-1.9-.6-2.8q-.1-.3-.1-.6c-.3-2.6-.5-5.1-1.5-7.5-.6 1.2-1.1 2.3-.7 3.5-.4.3-.4.8-.3 1.2-.4 1.1-.8 2.2-.6 3.4q-.1.4-.1.7c-.3.9-.7 1.8-.6 2.7q0 .7-.1 1.4c-.4.6-.7 1.3-.5 2.1q-.1.6-.2 1.3c-.4.6-.6 1.3-.5 2q-.1.4-.1.7c-.2.5-.4 1-.2 1.6-.6.5-.6 1.1-.5 1.8-.8 1.6-1 3.2-1 5-.5.5-.5 1.1-.4 1.8-.4.6-.7 1.3-.5 2.1q-.1.6-.2 1.3c-1.1 1.3-.8 2.8-.9 4.3-.5.5-.5 1.2-.4 1.8-.3.9-.7 1.8-.6 2.8q-.1.7-.2 1.3-.6 1-.5 2.1 0 .3-.1.6c-.2.5-.4 1.1-.2 1.6-.6.8-.6 1.6-.5 2.5q-.8 1.3-.6 2.8-.1.3-.1.6c-.7 1.8-1 3.6-1.2 5.5q-.1.3-.1.6c-.3.9-.7 1.8-.6 2.8q0 .3-.1.6c-.8 2.3-.9 4.6-1.2 6.9q-.1.7-.1 1.3c-.3.5-.5 1-.2 1.6-.7.7-.6 1.6-.5 2.5-.4.7-.6 1.3-.5 2.1q-.5.9-.3 2c-.1 0-.2.1-.2.1q0 .2.1.4c-.4.5-.5 1-.4 1.6q-.1.6-.1 1.3-.8 1.3-.6 2.7 0 .4-.1.7c-.4 1.1-.7 2.2-.6 3.4q0 .7-.1 1.3c-.4 2.8-1.1 5.5-1.2 8.2q-.4 1-.2 2.1-.6 1.3-.5 2.7 0 .7-.1 1.3c-.3.9-.6 1.8-.5 2.8q-.5 1.3-.3 2.7c-.4.6-.5 1.3-.4 2.1q-.4.9-.2 2c-.4 1.8-.7 3.6-.6 5.4v.7q-.9 3-.7 6.1v1.4c-.8 3.4-.8 6.9-.6 10.4.4 6.6.9 13.2 1.4 19.8.1.5.3.9.4 1.3l-.1.2.2.3v.6q.1.7.1 1.4c-.1 1.6.2 3.2.6 4.8q.1.6.1 1.3l.6 13c-.3 1.3-.4 2.7-.1 4l-.4 19.8q-.5 2-.3 4.1c-.5 1-.5 2.2-.4 3.4q-.4 1-.2 2v.6l-.2.3.1.2c-.6 1.2-.6 2.4-.5 3.7q0 .3-.1.6c-.4 1.1-.6 2.3-.5 3.5q-.3.9-.1 2c-.5 1.5-.8 3.1-.7 4.8v.6c-.3.9-.6 1.8-.5 2.8q-.4 1-.2 2c-.3 1.1-.7 2.2-.5 3.4q-.1.7-.1 1.3c-.4 1.2-.8 2.3-.6 3.5q-.1.3-.1.6c-.4 1.6-.8 3.2-.7 4.8v1.4c-.4 1.1-.7 2.2-.5 3.4q-.4 1-.2 2c-.8 4.3-1.1 8.6-1.3 12.9v.7c-.4 2.5-.8 5-.6 7.5-.3 1.8-.4 3.6-.4 5.4-.5 1.4-.4 2.8-.3 4.1q-.5 2.1-.2 4.1c-.9 5.2-.5 10.4-.5 15.7-.3 2.9-.3 5.8 0 8.8.1 4.2.3 8.5.3 12.8 0 4.8-.2 9.6-.2 14.5-.2 1-.5 2.1.3 3.1-.2.3 0 .6.2.9q-.1 1-.1 2c-1.2 3-3.6 5.1-5.4 7.6-.5-.1-.7.2-.7.6-.4.1-.6.3-.7.7-.4 0-.6.3-.8.6-.9.4-1.5 1.1-2 1.9q-.4.4-.9.8c-3.8 2.8-7.3 6-10 10-.4.2-.6.5-.8.9q-2.3 2.3-4.6 4.5c-.5.3-1 .5-1.2 1.1q-.6.1-.8.7-.6 0-.6.6-.6.1-.7.7c-.4 0-.7.3-.8.6-1.4.9-2.6 2-3.3 3.6-.5.2-.7.6-.9 1.1-1.8 2.1-3.8 3.9-5.9 5.7-.4-.1-.7.2-.8.5q-5.1 2.4-10.1 4.8c-.7-.3-1.4-.1-2 .2q-.7.1-1.4.1-1.7.3-3.4.5H98q-.4 0-.7-.1c-.5-.2-1.1-.3-1.7-.1-.7-.6-1.5-.6-2.4-.5-3-.6-6-1.2-8.6-2.9-.6-.7-1.4-1-2.3-1.3q-1.1-1-2.1-2 0-.6-.6-.7c-.9-1.3-2.2-2.3-2.1-4.1v-.7q-.1-3-.1-6.1 0-.3.1-.7c.2-.6.7-1.2.7-1.8 0-2 1.2-3.4 2.1-5 .6-.2.8-.6.9-1.1.4-.2.7-.4.5-.9q.3-.3.6-.7 1.3-.1 1.4-1.4c1.9-2.1 3.9-4.2 6.1-6.1.7.2 1-.2 1.3-.7q.6-.1.8-.7c.3 0 .6-.2.5-.6 4.4-3.5 8.2-7.6 12.1-11.5 3.3-3.2 6.6-6.5 9.8-9.7.5.1.6-.2.7-.6.6-.3.8-.8.9-1.3 1.2-2.2 2.6-4.4 3.6-6.7 2.3-5 4.5-10.1 3.6-15.8v-.7q.2-1.4-.2-2.8.2-.3 0-.6c.2-1.8-.2-3.6-.5-5.5v-1.3c.1-1.6.1-3.2-.3-4.8q.3-.3-.1-.6c0-2.9 0-6-.7-8.9.2-1.1-.1-2.3-.3-3.4.1-1.6-.2-3.2-.6-4.8q-.1-.3-.1-.6c-.5-3.9-.4-7.9-2.4-11.4-.4-.7.4-1.5-.2-2.3q0-.3-.1-.6c.1-.8 0-1.5-.5-2.1 0-1 0-2.1-.7-3 .1-1.5-.2-3-.8-4.5q0-.3-.1-.6c.2-1-.1-1.9-.5-2.8q-.1-.3-.1-.6.2-1.5-.6-2.8-.1-.3-.1-.6.2-1.5-.6-2.8c0-2-.3-4-1.2-5.9.1-1.7-.1-3.4-.8-5 0-1 0-1.9-.6-2.8 0-1.1-.1-2.3-.7-3.3.1-1.8-.4-3.6-.9-5.4q0-.7-.1-1.4c.1-.4.1-.8-.3-1.1.2-.6 0-1.1-.2-1.6q0-.3-.1-.7c-.2-3.2-.5-6.4-1.3-9.5.1-1.5.2-3-.5-4.4.2-1.5 0-3-.3-4.5q0-.6-.1-1.3c.2-.7.2-1.4-.2-2.1.2-.7.1-1.3-.1-2-.1-5.6-.1-11.2-.1-16.9.1-4.3.3-8.7.4-13.1q.5-1.3.2-2.6c.3-1.6.8-3.2.6-4.9q.2-.3 0-.6.1-.7.1-1.4c.2-1.1.6-2.2.3-3.4.6-2.9.8-5.9.9-8.9q.5-1.6.2-3.3c.5-1.4.7-2.7.5-4.1q.2-.3 0-.7.5-2.2.3-4.6c.1 0 .2-.1.2-.2s0-.3-.1-.5c.5-1.1.5-2.3.4-3.5q.4-1.4.1-2.7c.9-3.1.7-6.3.7-9.4.1-4.4.3-8.8-.4-13.1-.1-1.4.6-2.9-.9-4q-.6-.1-1.1-.2c-.7-.6-1.5-.6-2.3-.6-1.2-.3-2.6.1-3.7-.8-.5-.5-1.1-.5-1.8-.5-.3-.2-.5-.3-.9-.1-.5-.6-1.1-.6-1.8-.6-1-.4-2.1 0-3.2-.6-1.6-.9-3.3-1.4-4.9.7-1 1.2-2.2.5-2.9-.8-.1-1.1.5-2.4-1.3-2.7-1.4.6-2.1-1.4-3.4-1.2-.8-.4-1.5-.4-1.9.6-2.9 1.7-3.5 1.5-4.9-1.5.4-.5.4-1-.3-1.2-1-.3-1.9-.9-3.1-.7-1.1-.7-2.4-.9-3.8-.9-.2-.3-.5-.4-.9-.3-1-.5-1.4-1.6-2.2-2.3.1-.1.1-.2.1-.2l-.2-.4q-.1-.8-.2-1.5.3-.2.1-.6c.6-2 .5-4.2 1.5-6.2q.1-.6.2-1.3c.7-1.2.8-2.4.7-3.7.7-.9.7-2 .7-3.1.7-1.7 1-3.6 1.2-5.5v-.6c.5-.9.8-1.8.7-2.8v-.6c.5-.9.8-1.8.6-2.8q.1-.3.1-.6c.3-.3.4-.6.2-1 .6-.7.6-1.6.6-2.4q.7-1 .5-2.1c.3-.9.7-1.7.6-2.7.3-.5.4-1.1.3-1.7.6-.7.6-1.5.6-2.4.1-.2.3-.4.3-.6.1 0-.1-.1-.1-.2.5-.6.5-1.2.5-1.9q1.1-2.3 1.2-4.8l.2-.6c.5-.6.6-1.3.5-2.1q0-.3.1-.7c.4-.6.6-1.3.5-2l.2-1.4c.4-.6.6-1.3.5-2q.1-.7.1-1.4c.3-.5.6-.9.3-1.5.4-.3.4-.7.3-1.2.6-2.2 1-4.5 1.3-6.8l.2-1.4c.2-.4.5-.9.2-1.5.4-.3.4-.7.4-1.2.2-.7.6-1.4.3-2.2.5-.5.5-1.2.4-1.9.5-.8.7-1.7.6-2.7q.1-.3.1-.7c.4-.8.7-1.7.6-2.7v-.7c.4-.9.7-1.7.6-2.7q.1-.7.1-1.3c.7-2 .9-3.9.9-6 .3-.2.4-.4.2-.8.2-.4.3-.9.2-1.4q.1-.7.1-1.4c1.1-6.3 2.4-12.7 3.3-19 2.7-17.3 5.7-34.4 8.6-51.7 1.6-9.9 2.9-19.9 4.5-29.8 1.2-7.1 2.7-14.1 4.1-21.1.3-1.7.6-3.6 2-4.9.6-.5.5-1.2.6-1.9.9-8.5 2.4-17 3.7-25.5 1.9-12.6 3.4-25.2 1.8-37.9-.7-6.1-2.2-12-3.2-18.1-1-5.9-2.7-11.6-3.9-17.6-1.3.2-1.2 1.2-1.4 1.8-4.5 14.2-6.7 28.9-7.7 43.7-.6 9-2.5 17.7-4.4 26.5-3.8 17.4-10 34.1-15 51.1-3.7 12.7-8 25.3-12.6 37.7q-1.5 4.1-3.4 8.1c-.7 1.6-.4 2.7.6 4 3 3.8 6.1 7.6 8.7 11.8 3.1 5.1 5.4 10.4 5.9 16.4.3 4.2 1.3 8.3 2.4 12.3 1.4 5 1.9 10-.3 15-.3.6-.2.9.2 1.5 2.2 3.6 1.5 6.2-2 8.4-.9.6-1.8 1.1-2.6 1.6-.5-.1-.9-.1-1.2.3-.8-.3-1.5.1-2.2.3-1.1 0-2.1 0-3.1.6q-2.6-.1-5.2-.3-.2-.2-.5 0-1.4-.4-2.8-.2-.3-.1-.7-.1-.5-.1-1-.1c-.2-.4-.6-.5-1-.3q-3.7-.8-7.5-1.5-.3-.1-.7-.2c-.9-.4-2.3-.1-2.9-1.3-.1-.7-.6-.8-1.1-1-.7-.6-1.7-.9-2.1-1.8.2-.6-.2-.9-.7-1.2-2.5-3.3-3.2-7.2-4.1-11q-.1-.4-.2-.7c0-2.2-2.2-3.8-1.9-6.1 0-.9.1-1.7-.5-2.4-.8-1.2-.6-2.5-.8-3.8q-.1-.6-.1-1.3c-.1-1.8.2-3.7-.5-5.5.3-.4.2-.9-.1-1.3.1-2.1 0-4.1-.7-6.1.1-1.6.1-3.2-.3-4.7-.6-7.8-1-15.5-1.1-23.3q.3-1 0-2c.4-2.5.7-5 .5-7.5q.2-.3 0-.6 0-.7.1-1.4v-1.3q.4-4.8.7-9.6.4-1 .1-2c.8-3.2.7-6.4 1.1-9.6q.2-.3 0-.6.4-1 .2-2.1 0-.3.1-.7c.6-2.3.8-4.8.8-7.2.3-.2.4-.5.2-.8.4-.9.4-1.9.3-2.9v-.6c.4-1.4.7-2.7.6-4.1q.3-1 .1-2c.5-1.6.7-3.2.6-4.8q0-.4.1-.7c.4-1.3.7-2.7.6-4.1q0-.3.1-.7 0-.5.1-1.1.5-.3.2-.8.1-.8.2-1.5.1-.6.2-1.3c.2-.5.4-1 .1-1.6.4-.3.4-.7.3-1.1l.2-1.4q0-.3.1-.7.7-1.3.5-2.7.2-1.7.5-3.4l.8-4.8q.1-.7.2-1.3c.2-.3.3-.6.1-1 .4-.3.4-.6.3-1 .4-1.9 1-3.6.9-5.5.3-.9.6-1.8.5-2.7.3-.9.4-1.8.2-2.8q0-.6.1-1.3c.2-.3.3-.6.1-1 .6-.7.4-1.5.2-2.3zm33.1-176.2zm.7-.7v-.1.1zm2.8-2.6v-.1.1zm0 0zM237.4 46.9zM307.5 651zm-13.6 318.4v.1-.1zM176.9 647zm11.5-510.5h-.1l.1.1v-.1zm-.3.6c-.1 0 .1.2.1.2.3-.2.2-.5.2-.7q-.2.2-.3.5zm1-1.1h.1v-.1.1h-.1zm.7-1.4h.1q-.1-.1 0-.2l-.1.1v.1zm3.9-4.4c.3-.9 1.2-.3 1.9.3 1.3 1.1 1.4 1 1.7-.9.1-.5.1-1 .7-1.1.6-.1 1.1.3 1.3.8.2.3.3.7.2 1-.6 1.7.2 3.1 1 4.5.5.7.7 1.7 1 2.5q2.7 6.7 5.5 13.4c2.6-1 4.5-2.6 6.2-4.4.8-.8 1.6-1.4 0-2.2-.7-.4-.6-1.2 0-1.8.4-.4 1.2-.4 1.5.1.8 1.7 1.4.7 2.1 0 5.9-6.4 10.5-13.4 11.9-22.2.3-1.9 1.1-3.2 3.1-3.9 6.4-2.4 10.4-7 12.3-13.5 1.3-4.4.6-8.7-2.2-12.5-1.4-1.9-3.1-3.3-5.8-3.3-.1 1-.2 1.9-.3 2.8-.2 1.8-.3 3.9-2.5 4.3-2.3.4-2.9-1.7-3.6-3.3-1.2 0-.5 2.1-2.2 1.8 0-2.3.9-4.4 1.1-6.7.4-6.3 1.1-12.6 1.2-18.9 0-3.7-.1-7.5-1-11.2-.9-3.7-1.8-4.6-5.5-4.7-4 0-8.1-.3-11.9 1.7-.9.5-2.1.7-3.2 1.1-5.8 1.9-11.5 1.7-17.2-.6-2.7-1.1-5.3-2.2-7.7-3.7-2.3-1.5-4.6-1.6-7.1-1.1-6.3 1.1-11.9 3.6-17.1 7.2-1.6 1.2-2.4 2.6-2.6 4.5-.5 5.7-.8 11.3-.8 17 0 2.7.5 5.4 1.5 7.9 1.7 4.6 2.9 9.3 3.6 14.2 0 .4.3.9.2 1.3-.2.6-.7 1-1.2.2-.2-.4-.4-.7-.9-.9-.5.6-.9 1.3-1.4 1.8-2 1.9-3.8 1.4-4.5-1.3-.3-1.4-.4-2.9-.5-4.3-.3-2.2-.4-4.5-1.4-7.1-3.9 3.4-6.1 7.3-6.9 12-.5 3.7.8 6.7 3.7 9 2 1.5 4 3.2 6.4 3.6 4.4.8 6.1 3.8 7.1 7.5q.3 1 .7 2c2.4 6.6 5.4 12.9 9.8 18.5 1.2 1.5 2.3 3.3 4.4 4 1.9 2.7 4.8 4.1 7.8 5.2 3.2 1.2 3.2 1.2 2.8-1.7-.8.3-1.4 1.1-2.3 1-.1-.5-.1-1.5-.3-1.5-2-.5-1.2-1.7-.8-2.8.2-.3.6-.7 0-1-.1 0-.4.3-.7.5-1-.2-.8-2.7-2.6-1.4-.1-.3-.4-.6-.4-.8.1-.8.4-1.6 1-2.1.3-.4.6-.7 1.1-.6.7.2.3.7.3 1.1-.5 1.6 1.6.5 1.8 1.7.1.2.9 0 1-.4.2-.7 1.5-1.4 0-2.2-.9-.5-.5-1.4-.1-2.1q1.4-2.5 2.9-4.9c.3-.5.7-1.3 1.5-1 1 .3.6 1.2.6 1.8 1.1-1.5 3.1-2.1 3.8-4.2zm-17.4 15.4q0-.1-.1-.1l.1.1zm12.1-9.1c.5.3.7 0 .7-.5-.4-.2-.5.2-.7.5zm.8-.6c.8-.1.7-.7.6-1.3q-1 .4-.6 1.3zM186 48.7h.1c.2 1.2 1.2 1.3 2.5 1.4-1.1-.6-1.8-1-2.6-1.4zm0 0q-.3-.1-.6-.1c.2.1.4.3.6.1zm11 4.5c1.7.3 3.4.1 5.1.1-1.7-.1-3.4-.1-5.1-.1zm0 0zm-7.5-2.7c2.2 1.6 4.9 2 7.5 2.7-2.3-1.5-5-1.9-7.5-2.7zm153.4 517.6v-.1h-.1l.1.1zm1.3-1.4c1.2-2.6 2.6-5.3 3.5-8.1 2.3-7.6 2.5-15.5 1.1-23.3-1-5.3-2-10.6-2.3-16.1-.2-6-1.2-12-.5-18 .7-6.6 1-13.3.7-20-.3-6.7-.1-13.4.5-20.1 1.8-17.3 1.9-34.6 1.8-51.9 0-17.4-3.4-34.3-7.2-51.1-1.4-6.4-2.4-12.6-2.5-19.1-.2-18.7-3-37-9.7-54.6-1.3-3.1-2.5-6.3-2.9-9.7-.7-5.7-1.3-11.3-1.4-17-.2-7.8-.5-15.6-.6-23.4-.1-5.1-1-10-2.3-14.8-2.7-9.6-7.8-17.4-16.3-23-7-4.6-14.5-8.1-22.1-11.3-3.6-1.5-7.5-2.6-11.3-3.7-4.5-1.2-9.2-2.2-13.8-3.3-5.7-1.5-11.4-3-16.3-6.4-1-.7-2.2-1.3-3.3-1.8-2.8-1.3-4.7-3.4-6.3-6-1.2-2.1-2.2-4.2-3-6.5-2.3-5.9-2.9-12-2.9-18.3 0-1.1.3-2.4-.6-3.8-.8 1-1.3 1.8-1.8 2.5-2.8 3.8-5.9 7.4-9.2 10.9-3.4 3.4-7.4 5.4-12.1 6.3-3.1.6-6.1.6-9.2.5-9.9-.2-18-4.1-24.2-11.8-1.5-1.9-2.9-4-4.1-6.2-.5-.8-.7-1.8-1.9-2.7.3 6.3-.3 12.1-1.4 17.9-1.6 8.6-5.3 16.2-11.9 22-4 3.4-8.5 6.4-13.2 9-9.8 5.5-19.9 10.1-30.6 13.8-6.1 2-12.1 4.3-17.6 7.8-5.7 3.6-10.9 7.8-14.2 13.9-3.6 6.3-6.2 13.1-7.8 20.2-1.6 7.2-1.3 14.4-1.2 21.7.2 11.4-.7 22.6-1.9 33.9-1 9.8-3 19.5-5 29.1-2.7 13.3-5.1 26.5-9.8 39.2-.2.6-.3 1.1-.4 1.7-.7 5.6-1.5 11.2-2.1 16.8-.8 7.2-1.3 14.5-2.4 21.6-1.5 9.8-3 19.5-4.3 29.3-1.4 11.3-2.8 22.7-3.7 34.1-1.1 12.7-1.8 25.4-1.2 38.1.6 11.6 1 23.3 3.3 34.8q.3 1.1.3 2.3c-.1 4 1.2 7.6 2.9 11.1 1.6 3.4 4.2 5.9 8 6.9 5.6 1.5 11.3 2.3 17.1 1.9 2.6-.2 5.2-.5 7.6-1.7 1.2-.5 2.5-1.5 2.1-3.1-.3-1.2-1.7-1.1-2.8-1.3-.4-.1-.9-.1-1.4-.2-3.9-.5-7.8-1-11.7-1.8-4.1-1-6.5-3.6-7.6-7.4-1.2-4-1.7-8-1.9-12.1-.2-3.7 1.6-6.3 5-7.7 1.3-.6 2.7-.9 4.3-1.3-.8-2.6-1.6-5.1-2.4-7.5-.2-.6-.1-1.2.5-1.5.6-.3 1.1 0 1.5.5.9 1.1 1.4 2.5 1.9 3.9q3.4 9.6 6.7 19.3c.9 2.6 2 5.2 3.5 7.7.8 1.2 1.5 2.5 3 3.1.7-.6.8-1.3.9-2.1q.8-5.5-.8-10.8-1.8-5.9-2.5-11.9c-.6-5.1-2.3-9.7-4.9-14.1-2.9-5-6.6-9.4-10-14.1-1.2-1.7-1.5-3.3-.6-5.3 4.5-11.3 8.8-22.6 12.4-34.2 3.4-10.6 6.6-21.2 9.9-31.8 3-9.5 6.2-18.9 8.5-28.6 2.8-11.5 5.1-23 6-34.8.6-8.6 1.8-17.1 4-25.5 1.7-6.3 3.6-12.6 5.5-18.9.4-1.4.5-2.6 0-4-1.1-3.5-1.7-7.2-2.4-10.9-1.1-6.8-2.7-13.6-6-19.7-3-5.6-6.1-11.2-9.8-16.3-3.6-5-6.3-10.5-9-16-.3-.6-.8-1.2 0-2.1 1.6.7 2.4 2.2 3.2 3.6 3.1 5.8 6.9 11.2 10.7 16.5 2.3 3.2 4.3 6.7 6.5 10 .3.6.8 1.2.9 1.8.7 5.2 3.4 9.5 5.5 14.2.5 1.2 1.3 2.5 1.4 3.8.9 6.6 2.8 13 4.3 19.6 2.1 9.2 4.1 18.5 5.9 27.9 1.8 8.9 3 17.9 2.7 27-.3 8.8-1.3 17.6-2.9 26.3-1.5 7.7-2.3 15.4-3.4 23.5 2-.1 3.8-.2 5.6-.4 4.7-.6 9.5-.6 14.2 0 16.2 1.9 32.3 2.6 48.6 2.3 4.3-.1 8.6.1 12.9-.3 16.7-1.5 33.4-3 49.9-5.9 9.2-1.6 18.3-3.3 27.2-6 1.1-.3 1.8-.5 1.9-1.8.8-9.1.7-18.1-1.1-27.1-1.1-5.2-2.6-10.3-4-15.5-.6-2.4-1.2-4.9 0-7.3 1.8-3.8 3.1-7.8 4.6-11.7 2.9-7.9 6.1-15.6 8.3-23.7 3.5-12.7 6.4-25.5 8.5-38.4 1.4-9 4.4-17.3 6.9-25.9.4-1.4.8-3 2.7-3.8-.1 1-.2 1.7-.3 2.4-.8 5.1-3 9.9-3.8 15.1q-2 12.7-4 25.5c-.2 1.2-.1 2.5.1 3.7 2 11.6 4.4 23.2 7.2 34.6 4.5 18.4 7.3 37.1 9.1 55.9 1.4 13.5 3.3 26.8 6.8 39.9 2.6 9.7 4.8 19.6 7 29.4 2.5 11.4 5 22.8 5.1 34.6 0 .6-.2 1.4.4 1.9 1.5 1.3.7 2.8.1 4-.8 1.7-1.7 3.2-2.8 4.7q-5.3 7.3-10.8 14.4c-2.2 2.9-3.7 6.2-4.7 9.7-1.7 5.7-2.8 11.4-3.9 17.2-.7 3.9-1.3 7.9-.8 11.9 0 .7.1 1.6 1.1 1.8.8.1 1.2-.6 1.6-1.1 2.4-3.3 4.2-7 5.4-10.9 1.2-3.5 2.2-7.1 3.3-10.7.2-.9.5-1.8.9-2.6.3-.6.9-1 1.6-1 .7.1 1.4.6 1.5 1.3.1 3.1 2.1 5.4 3.4 8 4.7 9.5 2.3 17.9-3.8 24.5-1.9 2.1-4.1 3.9-6.1 5.9-.8.8-1.6 1.5-2.3 2.4-.8.9-.4 1.7.6 2.1.8.4 1.5.4 2.4.3 2.5-.4 4.7-1.5 6.7-3q9.4-7 12.2-18.3c.5-1.8.9-3.5 1.5-5.3.4-1.2 1-2.4 2.6-1.9 1.3.5 1.4 1.7 1.2 2.9-1.9 9-5.1 17.4-12.5 23.5-.5.4-1.5.8-.9 2 3-.1 5.6-1.2 7.9-3.3q5-4.7 7.7-11c1.4-3.3 2.4-6.6 3.4-10 .3-1 .5-2 1.2-2.8.8-.9 2-.7 2.5.4.3.7.2 1.3 0 2-.5 3.2-1.6 6.2-2.3 9.4.9 0 1.1-.8 1.3-1.3zm-1.7 1.8c0 .3.2.3.3.1.1-.2.1-.3.1-.5-.2.1-.4.2-.4.4zm-91.1-145.2c1.3 3 2.6 5.8 3.7 8.7q8 20.6 15.8 41.2c1 2.6 1.9 5.3 2.7 8 .3.9 1.2 2.2-.1 2.7s-1.5-1-1.9-1.8c-3.2-7.8-6.6-15.4-9.7-23.2-4.3-11-8.3-22-12.4-33.1-.7-1.7-1.5-2.2-3.3-1.9q-18.4 3.3-37 4.9c-2.6.3-5.1.5-7.8.8.2.6.2.9.4 1.2 6.6 9.4 10.4 20 14.4 30.6 1 2.8 1.8 5.6 2.3 8.5.2 1.6.2 3.1-1.4 3.9-1.6.8-2.8 0-4-1-1.2-.9-2.1-2.1-2.9-3.4-2-3.3-4.1-6.7-6.1-10.1-1-1.6-1.9-3.2-2.9-5.1.1 3.1.9 5.6 1.3 8.3 1.9 10.9 3.8 21.8 6 32.7.2.8.3 1.6.2 2.4-.1.9-.5 1.8-1.6 1.8-1 .1-1.6-.5-1.9-1.2-.3-1-.7-2-.8-2.9-1.3-6.6-2.5-13.2-3.8-19.7-.5-2.9-.5-5.9-1.9-8.6-.2 1.1-.2 2.2-.2 3.4.1 9.6.3 19.2-.1 28.9q-.1 1.5-.3 3c-.2 1-.6 1.8-1.7 1.7-1-.1-1.2-.9-1.3-1.7 0-1.6-.1-3.2-.1-4.8-.2-12.4-.3-24.7-.5-37.1-.1-2.5-.3-5.1-.5-7.6-.8 1.1-1.1 2.2-1.4 3.4-1.1 4.9-2.3 9.7-4 14.4-.7 1.9-1.4 3.8-2.7 5.4-2 2.4-4.4 2-5.4-1-.7-2-.9-4.2-.9-6.3-.2-12.6 3.2-24.2 9.1-35.1.5-.9 1.4-1.6 1.2-2.8-1.1-.4-2.3-.2-3.4-.2-16.1 0-32.1-.1-48.2-2.1-1.6-.2-3.5-1.2-4.9-.3-1.5 1-1.5 3.2-2.1 4.9-6.8 21.8-13 43.9-20.5 65.5-.5 1.5-1.3 2.9-1.1 4.5.2 1.2-.4 1.9-1.5 1.8-1.1-.1-1.3-1.1-1.2-2.1q.3-2.1.9-4.3c2.2-8.3 5.1-16.4 7.7-24.6 4.9-15.1 8.9-30.4 14.6-45.3.1-.2.2-.6-.8-1.2-6.2-.5-12.9-.2-19.7.3-1.7.1-1.6 1.3-1.7 2.4-1.3 7.8-2.7 15.6-3.8 23.5-1.4 9.4-2.5 18.8-3.9 28.2-3.4 21.6-7.1 43.2-10.4 64.8-2.6 16.7-5.5 33.3-8.9 49.8-2.7 13.2-6.1 26.3-8.5 39.5-.8 4.6-2 9-3.1 13.5 1.5.3 2.7.5 3.9.7 2.5.5 2.5.5 2.8-2.2.6-4.1 1.9-7.9 4.2-11.3.7-1.1 1.6-2.2 3-1.7 1.3.4 1.5 1.6 1.7 2.7.4 3.7.2 7.3-1 10.8-.4 1.2-1.2 2.4-1 3.9 1.3.5 2.5 1 3.9.7.1-.8.2-1.5.4-2.1.9-3.4 2-6.8 4.1-9.7.6-.9 1.3-1.6 2.5-1.3 1.3.2 1.8 1.2 2 2.4.1.9.1 1.8.1 2.7-.1 2.9-.8 5.6-1.8 8.3-.6 1.6-.2 2.2 1.4 2.6 11 2.7 22.1 5.3 33.4 6.1 13.2.9 26.3.1 39.3-2.2 2.1-.4 2.7-1.5 3-3.3 3.5-20.2 7.6-40.3 12.2-60.3 3.7-15.9 6.8-31.9 7.9-48.2.5-7.7 1.2-15.4 3.8-22.7.4-1.3.5-3.1 2.2-2.8 1.7.3 1.3 2.1 1.1 3.4-.9 7.6-1.4 15.1-1.9 22.7-.4 5.6.6 11.4-2 16.7-.1.3.1.9.2 1.3.8 3.1 1.5 6.2 2.3 9.2 4.6 17.4 8.1 35.1 12.2 52.6 1.8 7.3 3.2 14.6 5.9 21.6.5 1.3 1.2 1.9 2.5 2.2 20.3 4.5 40.8 6.3 61.5 2.9q13.3-2.1 25.7-7.4c2.1-.9 2.7-2.1 2.7-4.4-.1-10.2-.5-20.4-1.8-30.5-1.5-12.5-3.4-24.9-5.2-37.4-.4-2.9-.4-5.9-1.6-8.6-1.1-2.5-1.7-5.2-2.2-7.7-1.3-5.7-2.1-11.4-2.1-17.2.1-8.8-1-17.5-1.8-26.1-1.3-14.3-4-28.5-6.9-42.6q-3.2-15.6-6.7-31.2c-1.7-8.1-2.9-16.2-5.3-24-7.4 2.4-14.9 3.2-22.6 5.3zm-38.6 42.8v.1h.2q-.1 0-.2-.1zm.3.1h.2H213h.1zm-.4-2.3c-3.6-9.7-7.2-19.5-12.6-28.5-.7-1-1.1-2.2-2.4-3-.8 2.3-.7 4.3.3 6.3 4.7 9.3 9.1 18.7 14.8 27.4.4-.7.2-1.5-.1-2.2zm81.7 499.6c4.1-1.3 5.6-5.2 8.7-7.2.4-.3.3-1.1.4-1.6.8-3.6.4-7-.5-10.5-1.2-4.4-2.7-8.9-3.7-13.4-3.8-18.9-6.4-38-7.2-57.2-.5-13.3 0-26.6 2-39.7 1.6-10.8 4.4-21.3 5.7-32.1 1.1-9.9 2.7-19.8 2.2-29.8-.3-5.6-.8-11.1-1.3-16.6-1.2-11.5-2.8-22.9-6.7-33.9-4.1-11.7-5.9-23.7-5.6-36.1 0-3.6 0-7.2-.1-10.9-.1-5.5-.8-10.9-1.6-16.7-20.7 4.5-41.1 3.5-61.8-.6 1.7 3.3 2.6 6.5 3.4 9.7l2.8 11.2c2 8.6 4.9 16.9 7.1 25.5 4.3 16.5 6.2 33.4 7.4 50.3 1.1 17.3 4.1 34.2 7.3 51.1 3.8 20.1 8.6 39.9 10.2 60.3.8 9.2 2.7 18.3 2.6 27.7 0 13.6-1.3 27.1-4.3 40.4-1.7 8-3.6 15.9-5.3 23.9-1.7 7.9 2.9 14 10.6 14.4 2.6.2 3.7-1 3.6-3.5 0-1.1-.4-2.2.3-3.2 1.8.8 2.2 2.2 2.3 3.7.2 2.9 0 3.4 3.9 2.6.4 0 .7-.2 1-.3 1.9-.3 3-1 2.9-3.3-.1-1.4.4-2.9 2.2-3.2.3 1.5-.4 3 .6 4.5 4.3-1.3 8.2-3 9.3-8 1 .7 1 1.7 1.6 2.5zM170.2 663.7c-19.1 3.5-37.7 4.2-56.5.4-.3 3.3.5 6.1.6 9.1q.4 11.5-.6 23.1c-.9 9.7-1.3 19.4-2.4 29.1-1.4 13.6-1.1 27.2-.1 40.8 1.2 15.9 4.5 31.6 7.5 47.2 1.8 9.1 4.1 18.1 5.8 27.3 2.1 11.1 2.7 22.5 3.4 33.8.2 3.4.7 6.7.5 10.1-.8 9.2-4.3 17.3-10.4 23.9-6.8 7.4-13.9 14.7-21.7 21.1-3.8 3.1-7.3 6.5-10.5 10.1-2.6 2.9-4 6.4-3.5 10.3.3 2.6.8 2.8 3 1.6.9-.5 1.7-1.4 3-1.6-.1 2.4-2.6 3.1-3.4 4.8 3.4 2.5 6.7 3.3 10.2.3 1.1-.9 2.4-2 4.2-1.9-.8 2.5-3.6 3.1-4.6 5.3 1.1.2 2 .5 2.8.6 1.3.1 2.3.4 3.4-1.3 1.2-1.8 3.8-2.3 6.3-2.5-.7 1.9-2.7 2.2-3.8 3.9 9.1-.3 16.6-3.3 22.1-10.5.8-1 1.5-2 2.4-2.8 5.7-5.1 11.2-10.3 16.2-16 .5-.6 1.1-1.1 1.7-1.7l10.6-9.6c1.4-1.3 2.5-2.9 2.5-5 0-3.9.2-7.9.2-11.9 0-9.1-.1-18.3-.2-27.5-.1-11.6.9-23.1 1.8-34.6.7-9.5 1.6-19 3-28.4 1.8-12.2 3.4-24.5 4.4-36.8 1-11.1.5-22.2.5-33.3q0-1.3-.2-2.7c-.7-6.5-1.3-13.1-1.9-19.6-1.3-13-.5-25.8 1.3-38.6.7-5.3 1.5-10.6 2.4-16.5zm129.4-118.1c.9-.9.9-1.9 1.1-2.9 1.8-8.5 4.5-16.5 10.6-23.1 3.1-3.3 5.5-7.2 8.4-10.7 2.3-2.7 3-5.4 2.2-9-1-4.6-1.1-9.4-1.8-14.1-2-13.8-5.4-27.3-9-40.8-4.5-17.1-7.4-34.5-9.1-52.1-1-10.6-2.2-21.2-4.5-31.6-3.5-16.4-7.3-32.7-9.9-49.3-.2.2-.5.3-.5.5-.3.8-.5 1.5-.7 2.3-3.2 15.7-9.2 30.5-15.1 45.3-1.4 3.6-1.8 6.6-.6 10.2 1.5 4.7 2.6 9.6 3.5 14.5 1.6 8.6 2 17.3.9 26-.5 3.3.1 6.3 1.4 9.2 1.2 2.7 2.1 5.5 2.7 8.4 4.1 17.5 9.3 34.8 12.5 52.6 2.4 12.9 5 25.8 5.9 38.9.7 8.6 2.3 17.1 2 25.7zm16.8.8c-.5 1.6-.9 3-1.4 4.4-1.3 4.5-3.1 8.9-5.5 13-1.3 2.1-2.6 4.3-5.1 5.2-1 .4-1.1 1.1-.9 1.9.6 2.7.8 5.5 1.7 8.3 2.8-3.4 6.1-5.8 8.9-8.8 6.7-7.2 7.6-14.9 2.3-24zm-248.3 1.4c-2.6-5.9-3.8-11.7-6-17.3-.9-2.6-.9-2.6-3.5-1.6-3.7 1.3-4.9 2.7-4.8 5.6.1 3.5.9 7 1.7 10.4.2.8.6 1.4 1.6 1.4 3.6 0 7.2.5 11 1.5zm115.5-74.4c1.4-1.8 1.8-3.5 2.3-5.2 2.9-9.5 4.8-19.1 6.8-28.7.4-1.9-.3-3.3-1.1-4.8-5.7 7.9-10.8 28.6-8 38.7zM58.5 549.2c2.7 2 6 1.9 9.4 2.4-2.9-2.2-6.2-2.2-9.4-2.4zM194.2 50c3.1.9 6.2 2 8.7 1.3-2.4-.6-5.5-1.1-8.7-1.3zm7.4 99v1.2c.1 2.2.2 2.3 2.2 1.3.6-.3 1 0 1.5-.1.4-.1.4-.5.3-.9-.1-.2-.1-.5-.3-.5-.6-.2-.4.3-.5.6-.2.7-.5.9-1.1.4-.7-.6-.9-1.6-2.1-2zm-5.3 1.3c-.3 1.9-.4 2.3 1.3 2.1-.5-.6-.5-1.9-1.3-2.1zm1.3 2.1c.3.3.8.4 1.6-.3q-1 .2-1.6.3zm123.8 430.8-.1.1c0 .1.2.3.2.2.3 0 .3-.2.1-.3 0-.1-.1 0-.2 0z" class="s2"/><path d="M232.2 113.3c.6-2 2.1-3.4 3.4-4.8 2-2.3 3.4-4.8 3.7-7.9.2-2.1-.3-4-.8-6-.3-1.1-.6-2.1-.6-3.2 2.9 1.9 3.4 5 3.5 8 .2 6.6-4.5 10.3-9.2 13.9zM224.5 99.3c-.1.7-.5 1.2-1.2 1.2-.8-.1-1.2-.6-1.1-1.4.1-.5.5-1 1.1-1 .7 0 1.2.3 1.2 1.2z" class="s2"/><path d="M342.8 568c0 .2.1.4 0 .6-.1.2-.3.2-.3-.1 0-.2.3-.3.4-.5h-.1zM321.4 583.2c.1 0 .2-.1.2 0 .2.1.2.3-.1.3 0 .1-.2-.1-.2-.2l.1-.1zM212.8 466.2h.4c.1.4.4-.1-.1 0-.1 0-.2 0-.3-.1v.1z" class="s1"/><path d="M117.5 281.2c11 5.2 22.6 4.1 34 3.5 7.6-.4 15-2.1 22.3-4.2 1-.3 2.5-1.2 3 .2.5 1.6-1.4 1.8-2.5 2.2-5.3 1.8-10.9 3-16.5 3.8-10.2 1.5-20.5 1.7-30.7-.3-3.7-.8-7.1-2.2-9.6-5.2zM275.1 282.5c-3.2 3.9-7.8 5.2-12.5 5.8-14.6 2-28.9.7-42.9-3.6-1.1-.4-2.2-.8-3.2-1.3-.5-.2-.9-.7-.8-1.3.2-.7.8-.8 1.4-.7l1.6.4c12 3.4 24.1 5.1 36.6 4.7 6.8-.3 13.5-.6 19.8-4zM195.1 283.8c-.9-.8-1-1.6-1.1-2.5-.5-7-.8-14-.9-21.1-.1-5.7-.3-11.5-.5-17.3-.1-1.9-.2-3.8-1-5.6-.2-.5-.2-.9.2-1.2.6-.4 1.1-.1 1.4.4.3.6.6 1.3.7 1.9.3 1.2.6 2.5.6 3.7.6 13.9-.2 27.8.6 41.7zM250.2 267.3c1.8 0 3.6.4 5.2 1.2 3 1.5 3.3 4.8.6 6.8-1.5 1.2-3.3 1.5-5.1 1.2-1.1-.1-2.2-.4-3.3-.9-2.4-1-3.5-2.3-3.2-4.4.3-2.3 1.8-3.7 4.4-3.9.5-.1.9 0 1.4 0zM142.6 265.9c1.3 0 2.3.1 3.2.5 1.8.9 2.5 2.3 2.4 4.1 0 1.7-.8 3-2.5 3.6-2.5.9-4.9 1.7-7.5.7-2.1-.7-3.4-2.3-3.4-4.2-.1-1.7 1-3 3.1-3.8.9-.3 1.8-.6 2.6-.7.8-.2 1.6-.2 2.1-.2zM135.6 193c1.5-1.6 3.4-2.5 5.4-3.2 2.6-1 5.3-1.9 8-2.8 5.8-2.1 10.7-5.3 14.6-10.1.3-.5.7-.9 1.1-1.3.3-.3.7-.6 1.2-.3.7.3.5.8.3 1.4-1.4 2.9-3.6 5.2-6.1 7.2q-3 2.6-6.6 4.1c-5.8 2.4-11.9 3.5-17.9 5zM253.2 185.6c-7.6-1-15-2.7-22.1-5.7-3.9-1.6-5.4-5.1-7.2-8.6-.1-.2.1-.7.3-.8.2-.2.6-.1.9 0 .9.4 1.6 1.3 2 2.2 1.4 2.9 3.9 4.5 6.9 5.6 5.1 2.1 10.5 3.4 15.7 5.2q1.8.7 3.7 1.4-.1.3-.2.7zM200.7 393.1q0 1.7-.4 3.3c-.4 1.2-1.1 1.7-2.2 1.8-1.2.1-2-.4-2.3-1.6-.8-2.8-1.3-5.7-.7-8.7.3-1.3.9-2.4 2.3-2.5 1.8-.1 2.3 1.3 2.6 2.6.3 1.7.5 3.4.7 5.1zM334.8 387.7c0-.4 0-.9.1-1.3.1-.5.4-.8.9-.7.3 0 .7.3.8.5q.7 3.8 1.2 7.7c.1.5-.3.9-.7 1-.6.1-1.1-.3-1.2-.9-.7-2-1-4.1-1.1-6.3zM312.3 211.3c-.2 1.3-.3 2.8-1.9 3.5-.5.3-1.1 0-1.5-.5-.9-1.3-.3-2.6.1-3.8.3-.8.8-1.7 1.9-1.6 1.3.2 1.5 1.2 1.4 2.4zM334 407.6c.1.8-.1 1.6-1 1.8-.8.1-1.3-.6-1.4-1.2-.3-1.8-.9-3.5-.9-5.3 0-.5.2-.9.7-1 .5 0 .9.2 1.2.6.4.6 1.4 4.2 1.4 5.1zM342.3 414.7c-.1.5 0 1.1-.3 1.6-.4.7-1.1.8-1.7.2-.6-.7-1-5-.5-5.9.1-.3.5-.5.7-.6.5 0 1 .2 1.1.7q.4 2 .7 4zM334.3 434.3c.2 1.4.1 2.1-.7 2.2-.7.2-1.1-.3-1.3-.9-.4-1.4-.8-2.8-.7-4.2 0-.5.4-.9.8-1 .5-.1 1 .1 1.1.6.3 1.3.7 2.6.8 3.3zM344.9 396.6c.1.9-.1 1.7-1 1.9-1 .2-1.4-.6-1.5-1.5-.1-1.3-.1-2.7-.1-4 0-.5.2-.9.7-1 .7-.1 1.1.3 1.2.9.3 1.2.5 2.5.7 3.7zM340.5 382.6c-.1.7-.1 1.5-.9 1.7-1 .3-1.4-.5-1.7-1.3q0-.1-.1-.3c-.3-1.2-.8-2.4-.1-3.6.1-.2.7-.3.9-.2 1.4.8 1.8 2.2 1.9 3.7zM196.8 180.1c-1.7-.2-3.4.4-5.1.2q-.7-.2-.9-.9c-.1-.6.4-1 .7-1 2-.3 4-.6 5.3 1.7zM304.3 204c-.1 1 0 2.1-1.1 2.7-.3.1-.7.1-.9-.2-.8-.8-.9-1.8-.7-2.8.1-.3.3-.7.4-1 .2-.5.5-1 1.2-.9.7.1 1 .6 1 1.2.1.3.1.7.1 1zM85 219.4c0 1.3-.8 2-1.7 1.9-1.2 0-1.7-1-1.7-2.1-.1-1 .6-1.7 1.6-1.6 1.2.1 1.7 1 1.8 1.8zM81 226.3c0 1-.2 1.9-1.2 1.8-1.1 0-1.4-1-1.4-1.9-.1-.9.1-1.7 1.1-1.7 1.2 0 1.3 1 1.5 1.8zM86.1 223.9c.8.2 1.5.7 1.4 1.6 0 .8-.6 1.5-1.5 1.4-.8-.1-1.3-.6-1.3-1.3 0-.9.6-1.4 1.4-1.7zM303.1 216.3c-.5 0-.9-.4-1-1-.1-.6.1-1.1.8-1.2.8-.1 1.3.3 1.3 1 0 .6-.3 1.1-1.1 1.2zM310.7 204c0 .3-.2.6-.5.6-.5.1-.8-.2-.9-.6-.1-.4.2-.6.5-.7.5-.1.8.2.9.7zM267.2 742.1c-1.4-.2-1.5-1.2-1.7-2-.5-1.9-.9-3.8-1.3-5.6-.2-.8-.3-1.8.6-2.1 1.2-.4 1.6.6 1.9 1.4 1.1 2.7.8 5.4.5 8.3zM288.9 769.7c-.4-3.3-.8-5.9-1.1-8.4-.1-.9-.2-2 1.1-2 1.1-.1 1.3.9 1.4 1.6.3 2.8.9 5.6-1.4 8.8zM262.7 760.5c-2.4-2-2.5-4.6-2-7.3.2-.7.8-1.1 1.6-.9q.9.2.7 1.2c-.6 2.3 0 4.6-.3 7zM290.3 743.4c-1.8-2.3-2.6-4.5-3.2-6.7-.2-.6-.1-1.4.6-1.7 1.1-.4 1.4.4 1.7 1.1 1.1 2.1 1.3 4.3.9 7.3zM291.4 797.8c-2.6-2.9-3-6.1-1.7-9.9 2.1 3.1 1.6 6.2 1.7 9.9zM275.8 737.3c-1.8-2-2.1-4.4-2.3-6.8-.1-.6.2-1.1.8-1.2.7-.1 1.1.2 1.3.8 1.1 2.3.8 4.7.2 7.2zM271.5 772.3c0-2.4 0-4.8.1-7.3 0-.7.3-1.4 1-1.5.9-.1 1 .8 1 1.4.1 2.4.1 4.8-.8 7-.2.5-.5.7-1.3.4zM277 793.9c-2.5-1.1-3.5-3.9-2-5.8.3-.4.7-.6 1.1-.4.5.1.8.5.8 1q.1.5.1 1v4.2zM282.6 814.8c-1.2-2.2-1.9-3.8-1-5.8.3-.7.9-1 1.6-.7.7.2.8.8.6 1.4-.6 1.4-.1 3.1-1.2 5.1zM264.6 788.7v.5c0 .5-.2.9-.7 1-.3 0-.7-.3-.8-.5-.7-1.5-1-3-.8-4.6 0-.2.3-.5.6-.6.5-.2.9 0 1.1.5.6 1 .7 2.1.6 3.7zM281.4 753.4c-1.6-1.1-1.8-2.4-2.2-3.7-.3-.9-.1-1.9 1.1-2.1 1-.1 1.4.7 1.5 1.5.1 1.4.2 2.7-.4 4.3zM297.3 794.4c-1.2-.6-1.5-1.7-1.8-2.7-.3-.8-.2-1.7.8-1.9.9-.3 1.4.3 1.6 1.1.4 1.2.4 2.4-.6 3.5zM276.3 829.8c-1 .3-1.5.1-1.9-.2-.7-.5-1.1-1.1-.8-2 .2-.5.5-.8 1-.8 1 0 1.1.9 1.3 1.6.1.4.2.9.4 1.4zM272.2 809.7c-1.1-.4-1.5-.9-1.6-1.6-.1-.8-.1-1.8 1-1.8.9 0 .9.8.9 1.5-.1.6-.2 1.1-.3 1.9zM152.1 813.6c-1.9-2.1-2.4-5-1.4-6.9.2-.4.5-.8 1-.7.5.2.6.7.6 1.1-.1 1-.3 2-.4 3 0 1 .1 2 .2 3.5zM126.7 810.4c-1.7-1.7-2.8-3-2.8-4.9 0-.9.2-1.7 1.2-1.8.9 0 1.3.7 1.3 1.6.1 1.5.2 3 .3 5.1zM136.6 834c-1.7-1.9-2.2-4-2.9-6.1-.3-.8-.1-1.6.7-1.9 1-.2 1.4.5 1.7 1.3.9 2.1 1.3 4.2.5 6.7zM142.7 812.2c-2-2.8-2.8-5.1-2.6-7.8 0-.5.1-1.1.8-1.2.6 0 .8.5.9.9.6 2.4 1.6 4.7.9 8.1zM118.3 783.7c-1.6-2.1-1.7-4.7-2.7-7.1-.2-.5-.1-1.1.7-1.3.6-.1 1.1.2 1.3.8.3.9.6 1.9.7 2.9.1 1.6 0 3.1 0 4.7zM124.9 757.6c-1-1.6-1.4-3.3-1.4-5 0-.7.4-1.4 1.2-1.4.7 0 1.1.5 1.2 1 .5 1.9.7 3.8-1 5.4zM138.2 729.7c1.6 2.7 1.8 5.8 1.6 8.8-1.9-2.6-1.7-5.7-1.6-8.8zM153 765.3c0-.6-.2-1.4.7-1.6.8-.2 1.2.5 1.4 1.1q.8 1.8 1.4 3.8c.2.5.1 1.1-.6 1.4-.6.2-1.1-.1-1.5-.6-.9-1.2-1.4-2.5-1.4-4.1zM148.2 849.2q.1.7 0 1.4c0 .5.1 1.2-.5 1.4-.9.3-1.2-.5-1.4-1.1-.6-1.2-.9-2.5-.3-3.9.2-.6.6-1.3 1.4-1.1.6.1.9.7.8 1.3v2zM145.2 756.5c-1.9-1.5-2.3-3.2-2.3-5 0-.7.3-1.4 1.1-1.4.7-.1 1 .6 1.2 1.3.2 1.5.5 3 0 5.1zM141.6 775.6c-1.4-2.1-2.4-3.7-2.3-5.7 0-.6.3-1.1 1-1.1.5-.1.9.2 1 .6.4 1.8 1.3 3.6.3 6.2zM139.5 849.1c-2.4-.9-3.4-2.5-2.8-4.3.2-.6.7-.9 1.3-.9.4 0 .8.3.9.8.2 1.4.4 2.9.6 4.4zM148.2 792.9c-1.7-1.1-2.7-2.3-3.1-3.9-.3-.7 0-1.3.7-1.6.7-.3 1.2.1 1.5.6.9 1.3 1.3 2.8.9 4.9zM150 744.1c-2-1.2-2-2.9-2.3-4.6 0-.4.2-.8.7-1 .7-.3 1 .2 1.2.7.6 1.5 1.1 3 .4 4.9zM140 868.9c-2.3-1.1-2.3-2.8-1.8-4.6.1-.6.6-1 1.2-.9.7.1.8.7.8 1.3-.1 1.4-.7 2.7-.2 4.2zM133.8 794.7c-1.3-2.1-2-3.9-2-5.9 0-.5.3-.9.8-.9.2 0 .6.3.7.6.5 1.8 1.2 3.7.5 6.2zM128.4 771.3c-1.2-1-1.5-2.1-1.7-3.3-.1-.9.4-1.6 1.3-1.6.7-.1 1.2.5 1.2 1.2 0 1.2.4 2.5-.8 3.7zM149.5 830.6c-1.7-1.3-2.4-2.5-1.8-4.2.2-.5.7-.8 1.3-.6.5.1.8.5.7.9 0 1.2-.1 2.4-.2 3.9zM115.4 751.8c-.7-.6-1-1.5-1.2-2.3-.2-.9.1-1.7 1.1-1.7s1.5.6 1.5 1.5c-.1.9-.3 2-1.4 2.5zM132 739.5c-1.7-2.5-1.8-5-.6-7.4.9 1.1.4 2.5.5 3.7.1 1.2.1 2.5.1 3.7zM159.8 735.1c-.1.5-.4.9-1.1.9-.6-.1-1-.6-.9-1.2 0-.7.5-1 1.1-.9.6.1 1 .4.9 1.2zM159.7 80.3c2.8-3.5 6.7-4.9 10.8-5.4 5.1-.6 9.6.8 13.9 3.5.5.3 1 .8 1.4 1.3.4.5.6 1 .2 1.6-.3.5-.9.6-1.5.3-.7-.3-1.4-.7-2.1-.9q-7.2-2.1-14.7-1.6c-1.6.2-3.1.6-4.5 1.5-1.1.7-2.2.8-3.5-.3zM226 80.4c-1.4.7-2.4 1-3.6.2-2.5-1.5-5.3-1.8-8.2-1.6-4.4.3-8.8.4-12.8 2.5-.7.3-1.4.5-1.9-.2s-.1-1.5.5-2.1c2.9-2.4 6.3-3.7 9.9-4.2 6.1-.8 11.5.6 16.1 5.4zM194.8 104.4c-2.9 1.5-5.3 1-7.8-1.5-2.2-2.1-2.7-5.1-1.4-7.8.5-1.1 1.3-2.1 2.3-2.8 3-2.3 4.2-5.5 4.5-9.2 0-.4.1-.8.5-1.2 2.1.3 2.4 1.9 2.2 3.5-.3 3.2-1.4 6.1-3.9 8.4-4.5 4.2-3.5 8.2 2.5 10 .4.2.9.1 1.1.6zM201.4 103.3c1.4.6 1.3 1.8 1.2 3.1-.4 4.6-5.8 9.9-10.4 10.3-2.3.2-4.1-.8-5.5-2.7-1.1-1.3-1.7-2.9-2.2-4.6-.1-.5 0-1.1.6-1.4.6-.3 1.1-.1 1.5.4.6.8 1.1 1.6 1.7 2.5 1.9 2.5 3.5 2.9 6.1 1.3 2.9-1.7 5.3-4 6.1-7.4.1-.4.3-.9.5-1.3 0 0 .1-.1.4-.2zM150.2 94c-3.8 5.7-.3 10.2 2.2 15.1-4.3-2.6-6.7-8.3-5.4-12.5.5-1.5 1-1.9 3.2-2.6zM213.8 86.6c0 1.9-1.1 3.2-2.7 3.2s-2.8-1.5-2.8-3.2c0-1.7 1.3-3.1 2.8-3.1 1.7-.1 2.7 1.2 2.7 3.1zM177.1 86.5c.1 1.8-1.1 3.2-2.6 3.3-1.6.1-2.9-1.3-2.9-3.1-.1-1.8 1.1-3.2 2.6-3.2 1.6-.1 2.8 1.2 2.9 3zM180.6 135.5c.8 0 1.3.7 1.5 1.4.1.6-.4 1-1.1 1-.9 0-1.5-.4-1.5-1.4 0-.6.3-1 1.1-1zM200 69.2c-.3.9-.9 1.3-1.6 1.1-.7-.2-1.2-.7-1-1.6.2-.8.9-1 1.6-.8.8.1 1 .8 1 1.3zM215.3 98.5c-.5-.2-.8-.3-1.1-.5-.7-.5-.9-1.2-.5-2 .2-.5.7-.6 1.1-.4.9.4.8 1.2.7 2 0 .2-.1.4-.2.9zM208.9 117.5c0 .7-.4 1.2-1.2 1.3-.6 0-1-.4-1.1-.9-.2-.8.2-1.3.9-1.5.8-.1 1.2.4 1.4 1.1zM219.7 112.6c-.1.8-.7 1.1-1.4 1-.6 0-1.2-.2-1.1-1 .2-.8.7-1.4 1.6-1.2.6.1.9.5.9 1.2zM192 127.7c.9 1.5.3 2.6-.1 3.8-.1.2-.4.5-.8.4-.3-.1-.5-.4-.5-.7-.2-1.3.2-2.4 1.4-3.5zM219.4 103.5c-.1.7-.3 1.3-1.2 1.4-.8 0-1.2-.4-1.2-1.2 0-.9.5-1.2 1.3-1.2.6.1 1.1.3 1.1 1zM170.2 106.1c-.1.8-.4 1.3-1.2 1.2-.9 0-1.1-.7-1.1-1.4 0-.5.2-1.1.8-1.2 1 0 1.4.6 1.5 1.4zM173.9 110.2c-.1.6-.5 1-1.1 1-.6-.1-1.1-.4-1-1.1 0-.6.4-1 1.1-1 .6.1.9.5 1 1.1zM176.3 145.6c0-.6-.2-1.1 0-1.6.2-.7.9-.7 1.4-.4.4.2 1 .5 1 .8 0 .6-.6.9-1.2 1-.4.1-.8.1-1.3.1l.1.1zM202.2 131.9c-.5 0-.9-.2-.9-.7 0-.5.2-.9.7-1 .7-.1 1.1.3 1.1.9 0 .5-.4.8-.9.8zM204.9 138.5c-.5-.1-.7-.4-.7-.9.1-.5.5-.8 1-.7.4 0 .8.4.7.9 0 .5-.4.7-1 .7zM170.3 101.3c-.6-.1-1-.5-.9-1.1.1-.7.5-1 1.1-.9.7.1 1 .5 1 1.1-.1.7-.5 1-1.2.9zM211.4 103.4c-.2.1-.4.4-.7.4-.4.1-.7-.3-.7-.8 0-.3.3-.5.6-.5.5 0 .8.2.8.9zM196.7 73c.5-.1.8.2.9.5.2.5-.2.8-.6.9-.2 0-.7-.4-.7-.7 0-.2.3-.5.4-.7zM199.3 125.5c0 .5-.4.9-.8.8-.6-.2-.9-.6-1-1.2 0-.7.5-.8.9-.7.5 0 .9.4.9 1.1zM174.4 103.1q-.2.8-.9.8c-.6-.1-.7-.5-.7-.9.1-.5.4-.8.9-.8.6.1.6.6.7.9zM168.7 118.5c0 .2-.4.4-.9.2-.6-.2-.7-.7-.5-1.3.2-.5.7-.6 1.1-.3.4.2.6.6.3 1.4zM193.8 71.2c.1.4 0 .7-.4.8-.5.1-.9-.1-.9-.6 0-.3.2-.9.4-.9.4 0 .8.2.9.7zM210.5 140.3c-.2.4-.4.8-.6.8-.4.1-.9-.2-.9-.6 0-.5.3-.9.8-.8.3 0 .4.4.7.6zM193.3 123.3c.2-.2.3-.5.6-.6.5-.2.8.2.9.6 0 .2-.3.7-.5.7-.4.1-.8-.1-1-.7zM195.8 128c-.1.4-.4.8-.9.7-.5-.1-.7-.5-.5-.9.2-.4.5-.8 1-.6.3.2.5.5.4.8zM208.8 146c.1.4-.1.7-.4.8-.4.1-.8-.1-.8-.6 0-.4.2-.6.5-.7.5-.1.6.2.7.5z" class="s2"/></g></g></svg>