<svg xmlns="http://www.w3.org/2000/svg" version="1.2" viewBox="0 0 169 256">
  <path fill="#fff" d="M-165 0h500v500h-500z"/>
  <path fill-rule="evenodd" d="M82.3 476.8q-1 2.1-2.6 4c-1.6 2-3.7 3.5-6.1 4.4-3.1 1.1-5.8.5-8.4-1.5-2.4-1.7-3.5-4.1-4.3-6.8-1.5-5-1.5-10.1-.7-15.3.6-4 1.2-8 1.5-12 .3-4.6-.3-9.1-1.1-13.6-1.6-8.7-4.5-17-7.1-25.3-3.4-10.8-7-21.4-9.8-32.2-2.3-8.8-3-17.7-2.6-26.7.2-4.8.5-9.7.5-14.5 0-5.7 0-11.4-1-17-1.6-9.4-3.5-18.6-5.3-28-2.3-12.4-3.3-25-2.5-37.7.3-4.7.5-9.4 1.2-14 1.2-7.6 2.9-15.1 5.5-22.4 1-2.9 2.1-5.8 3.2-8.7 1.8-5.1 4.1-9.9 7-14.3 4.9-7.6 7.5-16 8.5-24.9.3-3.7.1-7.5-.4-11.2-1.2-11.3-4.3-22.3-7.7-33.1-5.8-18.2-12.5-36.1-18.3-54.4-2.2-7-3.5-14.2-3.9-21.5-.3-4 0-8.1.9-12 .3-1.4.9-2.7 1.9-3.7 3.3-3.2 7.2-5.6 11.5-7.2 2.3-.8 4.7-1.5 7.1-2.1q6.5-1.8 13-3.5c.7-.2 1.2-.4 1.7-.8 2.4-1.9 5.2-2.7 8.2-2.7 2.3-.1 4.6-.2 6.8.6.5.1 1.1 0 1.7-.1 4.1-.6 8.2-.8 12.3-.6 1.1 0 2.3.2 3.5.4 2 .3 4 1.3 6.2 1.1 2.1-.2 4.2.1 6.3.2 8.9.3 17.8.8 26.6 2.5q1.9.4 3.8 1.2c1.3.5 2.1 1.4 2.6 2.7.9 2.5 1.3 5.2 1.7 7.9 1 8.5 1.1 17 .5 25.6-.2 1.9-.3 3.8-.4 5.8 0 4.2-.4 8.5-.9 12.7-.4 4.8-.7 9.6-1.5 14.4-1 6-2.3 12-3.5 18.1-.4 2.3-.7 4.6-1.1 6.9q-.1.7 0 1.4c.8 14.9-.9 29.5-6.5 43.6-2.2 5.5-4.8 10.9-7.1 16.4-2 4.7-4.2 9.4-4.7 14.6-.4 4.5-.5 8.9-.3 13.4.4 6.3.8 12.7 1.3 19.1.5 7.9-.2 15.9-1 23.8-.5 5.4-1.2 10.8-2.4 16.1-1.7 7.6-4.4 14.8-7.2 22-5.8 15.6-12.7 30.7-19.2 46q-1.9 4.1-4.3 8.1c-1.2 2-1.1 4.2-.3 6.4 1.4 3.8 2.4 7.7 3.5 11.6 2.8 10.7 3.5 21.7 3 32.7q-.3 9.2-.3 18.5c.1 8.7 1.4 17.2 3.3 25.7 1.3 5.4 1.9 10.9 2.7 16.4q.8 6 .9 11.9c.1 4-.7 7.9-2.5 11.4-2.6 5.1-8 5.7-12.2 1.5-.4-.4-.6-1-1.2-1.3zM54.7 92.6c-2.6-2.9-2.2-6-.7-9.3 0-.1.1-.2.1-.3.7-.7.5-1.5.3-2.3-3.2-10.4-6-20.9-8.5-31.5-.2-.7-.2-1.4-1-1.9-.6-.4-.5-1.2.1-1.7l.8-.6c4.6-2.3 9-5 13.6-7.2 5.2-2.5 10.3-4.9 15.4-7.4 7.1-3.5 14.4-6.8 21.9-9.4.5-.2 1.2-.2 1.5-.7q-.1-.1-.1-.2c-6.3-1.2-12.6-.3-18.9.5-.6.1-.8.4-1 1q-.6 2.1-1.4 4.2c-.9 2.3-1.6 2.5-3.4.8h-.1c-.4.6-.8 1.3-1.2 1.9-.8.9-1.6.9-2.4-.1-.2-.3 0-.9-.6-.9-.4.7-.8 1.3-1.3 1.9-.9 1-1.8.8-2.3-.3-.2-.4-.1-1-.5-1.3-.6.3-.7.8-1 1.2-.9 1.1-1.7 1.6-2.3 1.2-.9-.6-.7-1.6-.7-2.4.1-1.4.7-2.7 1.1-4-.3-.2-.6-.1-.9 0-2.1.5-4.2 1-6.3 1.6-5.3 1.4-10.6 2.7-15.8 4.7-2.9 1.1-5.1 2.9-7.3 5-.9.8-1.4 1.9-1.6 3-.5 3.3-.8 6.5-.6 9.8.5 7.9 1.9 15.7 4.3 23.3 3.6 11.2 7.4 22.3 11.3 33.4 3.5 10.1 7 20.2 9.8 30.5.1.4 0 .8.5 1.2 1.3-1.7 2.5-3.4 4.1-4.6 3.3-2.6 6.8-5 10.7-6.6 5.6-2.3 11.3-3.8 17.3-4.5 9.4-1.1 18.8-.3 28.1 1.6 6.1 1.3 12 3.5 17.8 5.9.5.2 1 .7 1.7.5 0-2.1.2-4.2-.1-6.2-.6-4 0-7.9.7-11.8 1.7-9.7 3.8-19.3 4.6-29.1.8-9.1 1.3-18.1 1.8-27.2.4-5.6.3-11.3 0-17-.2-3.4-.6-6.8-1.4-10.1-.4-1.7-1.3-2.7-3.1-3q-4.8-.8-9.6-1.2-11.4-1-22.8-1.2c-1 0-2-.1-3-.2-1.1 0-2.2-.2-3.3.3-4.5 2-9.1 4-13.6 6-.4.1-1 .1-1 .8.1 0 .2.1.3.1q5.3 1.1 10.5 2.3c10.6 2.3 21.1 5.3 31.5 8.4q.4.1.8.3c.4.2.6.6.4.8-.8 1-.4 2.1-.3 3.1.3 2.7.2 5.5.1 8.2-.2 6.7-.7 13.3-1.3 20-.2 1.5.1 2.7 1.2 3.9 2.1 2.1 2.4 4.6 1 7.2q-1 1.8-1.7 3.7c-.6 1.6-.3 2.2 1.3 2.8q.8.3 1.7.5c.8.1 1.7.4 2.5.8 1.5.8 2.3 2.1 2 3.8-.3 2.5-1 4.8-2.6 6.8-.4.6-.6 1.1-.5 1.8.2 1.5-.2 2.9-.7 4.3-.5 1.3-1.3 2.1-2.9 2-.7 0-1.4 0-2.1.2-3.1 1-6.3.8-9.5 1.5-1.8.3-3.5-.2-5.2 0-1.5.3-3 .1-4.4-.2-1.3-.3-2.5-.3-3.8-.3-.6 0-1.2 0-1.8-.1-1-.1-1.2-.3-1.1-1.3.2-2.4.4-4.8 1.8-6.9 1-1.5 1-2.7-.2-4.1l-.2-.2c-1.1-1.5-1.3-3.1-.9-4.9.3-1.3.6-2.7.9-4.1-5.4 2.4-10.6 2-15.9-.2 1.2 2.6 1.4 5.1.7 7.8-.5 1.7.1 3 1.3 4.2 1.6 1.5 1.9 3.6.8 5.5-.6.9-.9 1.8-1.2 2.9-.4 1.8-.5 1.9-2.3 1.5-1.2-.3-2.4-.6-3.7-.3-4.9 1.3-9.9 1.8-14.9 1.3-2.8-.2-5.5 0-8.1 1.3-.9.4-1.3.2-1.7-.8-.3-.6-.5-1.2-.8-1.8-1.4-2.8-1.4-5.6-.7-8.6.5-2 1.1-3.9 2.2-5.7.5-.6.4-1.1-.1-1.6-.3-.3-.5-.6-1.1-.7-4.8 6.4-4.9 13.5-2.7 21-.5.1-.8-.3-1-.6-.5-.7-.9-1.6-1.1-2.6-1.4-6.7-.8-13 3.6-18.6.1-.1.1-.3.2-.5zm53.6-55.9zm.2-.2c.1 0 0 0 0-.1q-.1.2-.2.3l.2-.2zm-.2.2c.7.2.9.9 1.4 1.2 1.3 1.7 2.2 3.7 2.9 5.7.3.8.6 1.5 1.5 1.8 0-1.4-.2-2.6-.6-3.7-.6-1.9-1.8-3.2-3.5-4.1-.3-.7-.7-1.3-1.7-.9zM82.5 52.6c.6.3 1.1 0 1.6 0 1 0 2 .1 2.9.5.4.1.8.2.8.8 0 .5-.5.7-1 .8l-1.4.2c-2.4.5-4.8.9-6.9 2.3-1.2.8-2.2 1.7-3.5 2.3-.7.3-.8.8-.7 1.6q.4 2.8.5 5.6c.4 6.7 2.8 12.7 7 18 .6.7 1.2 1.3 2 1.7 4.1 2.1 8.4 3.2 13 2.1 3.1-.7 5.8-2.2 8-4.5 3.4-3.7 4.8-8.1 4.8-13 .1-3.8-.1-7.6.1-11.4.1-2.2-.9-3.3-2.7-4l-2.2-.8c-1.5-.5-3.1-.7-4.8-1-.4-.1-.9-.1-1-.7-.1-.6.4-.8.9-1q1.7-.6 3.6-.3c.5.1 1 .4 1.5.1-.3-1.2-.5-2.4-.6-3.6-.2-1.3-.2-1.3-1.6-1.6q-.6-.2-1.3-.3-2.6-.5-4.4-2.5c-.3-.3-.5-.9-1.1-1.1-.7.6-1.2 1.2-1.7 2-2 3.3-5 5.3-8.8 6.2q-.8.2-1.7.4c-.7.1-1.1.5-1.3 1.2zm40.1 20.6v-.1.1zm-.2-.2q.1.1.2.1c0-.1 0-.3-.2-.1zm1.8 3.7c.3-2.6.3-2.6-1.6-3.5.6 1.2 1.3 2.2 1.6 3.5zm3.4 14c-.1-.2-.2-.3-.4-.2-.3.1 0 .3.1.4.3.8.8 1.3 1.3 1.9 1.4 1.7 2.2 3.6 2.6 5.7.1.4-.1.9.5 1.1.8-1.5 1.2-3.1 1.4-4.8.2-1.9-.4-2.8-2.1-3.3-1.2-.4-2.3-.6-3.4-.8zm-2.2-27.9q.5-6.2.9-12.4c.2-2.8.2-5.6.4-8.4 0-.7-.1-1.1-.9-1.3-4.2-1-8.4-2.2-12.5-3.3-.3-.1-.7-.2-1 .1 2.4 3 2.4 3 2.8 5.8.2 1.1-.4 2.5.5 3.4.8.8 2.1 1.1 3.3 1.5q3.4 1.5 4.5 5.1 2.2 7.4-1.5 14.2c-.4.6-.6 1.3-1.4 1.5 0 .3-.2.6.2.9zm-4.9 6.2v-.1q-.2-.1-.3-.2 0 .1.2.3h.1zm-.1-.7c.4-1.1.9-2.2 1.2-3.3 1.3-3.8 1.4-7.6.2-11.4-.4-1.6-1.3-3-2.9-3.8-1.3-.6-2.6-1.2-4.2-2 .6 1.2 1.2 1.9 1.9 2.6 3.4 3.2 4.7 7.2 4.2 11.8q-.3 2.8-.8 5.5c-.1.5 0 .8.2 1 0-.1.1-.3.2-.4zm-55.8-.5q0 .1-.1.1v.1l.1-.1v-.1zm-.6.1c-.6-.6-1.1-1.3-1.6-2-1.7-3-2-6.1-1.4-9.4 1-5 3.4-9.2 7.9-12.1.4-.2.8-.5 1-.9 1.1-1.8 2.5-3.4 3.9-5 .3-.3.6-.6.6-1.2v-2.9c-1.2 1.1-2.3 1.9-3.3 2.8-1 .8-2 1.6-3.2 2.1-1.8.8-2.5.4-3.1-1.4q-.3.1-.5.1c-5.7 2.5-10.9 5.6-16.4 8.4-.9.5-1.1 1-.6 1.8.2.5.3 1.1.5 1.7q4 14.3 8 28.7c.1.5.2 1 .5 1.5 2.5-2.3 4.9-4.4 7.2-6.5q1.4-1.2 2.2-2.9c.3-.8.4-1.4-.5-1.9-.3-.1-.9-.3-.7-.8-.2.1-.3 0-.5-.1zm1.8.4c-.1-1.1-.2-2.1-.3-3-.1-1.3-.1-2.5-.6-3.7-1.8-4.7-.4-8.9 2.4-12.7.7-1 1.2-2 1.4-3.1-.5 0-.8.4-1.1.6-3.2 2.9-5.2 6.5-5.8 10.7-.5 3.8-.1 7.4 2.7 10.3q.2.2.1.4c.5-.2.7.8 1.2.5zm7 195.7c-.1.3-.3.6-.4 1-2.9 10.9-6.9 21.4-11.2 31.9-3.8 9.5-7.1 19.2-8.4 29.4-.8 6.3-1.4 12.6-.5 18.9.9 7 2.4 13.9 5.1 20.4 3.1 7.6 6.2 15.3 9.5 22.8 3.4 7.9 7 15.7 9.4 24 2.2 7.3 3 14.6 2.1 22.2-.4 4.1-.6 8.3-.2 12.4.1 2.1.9 3.9 1.2 5.9.7 4.2 2.7 7.9 5.6 11 1.3 1.4 3 1.8 4.6 1.1 1-.4 1.7-1.2 2.3-2.1 2.5-3.5 3.2-7.5 3.1-11.6-.1-2.8-.7-5.6-1.1-8.4-.7-4.7-2.1-9.3-2.8-14.1-1.1-7.1-1.8-14.3-1.7-21.5.2-8.1.1-16.1.1-24.2 0-5.5-.6-10.9-1.7-16.2q-1.8-8.9-4.6-17.5c-.6-1.7-1-3.5-.3-5.3 1-2.3 1.8-4.6 2.8-6.8 2.3-4.9 4.3-9.9 6.5-14.8 5-11.9 10.3-23.7 14.7-35.8 2.7-7.2 5.4-14.3 7-21.7.4-1.7.8-3.3.9-5-.9.2-1.6.4-2.3.5-2.9.6-5.6.1-8.4-.6-4.1-1-8-.8-11.6 1.7-.5.3-1 .6-1.5.8-5.8 3.4-11.8 3.2-18.2 1.6zm-.2-229.9h.1-.1zm.3-.1q-.1 0-.2.1c.1 0 .2.1.2-.1zm-.8.4c-1.6.5-3.1 1.4-4.7 2.1-.8.4-1.1 1-1.1 2.1 2.5-.8 4.3-2.4 6-4.1.2 0 .5-.1.3-.4q-.2.1-.5.3zM35.9 240.8c-.2 1.3-.4 2.5-.5 3.7-.6 5.1-.7 10.2-.9 15.2-.2 4.9-.1 9.8.3 14.6.8 8.7 2.2 17.2 4 25.7q1.4 6.8 2.5 13.6c.8 5 1.2 10.1 1.7 15.2.6 7 .5 14 0 21-.4 5.8-.3 11.6.3 17.4.5 4.7 1.7 9.2 2.9 13.7 2.6 9.8 6 19.3 9.1 29 2.5 8.1 5.4 16.2 7 24.6 1.3 6.4 1.9 12.8.9 19.3q-.5 3.8-1 7.5c-.1 1.1-.4 2.2.4 3.2 1.4 2 2.9 3.8 4.7 5.4 1.4 1.3 3.2 1.9 5.1 2 1.8 0 3.1-.7 4-2.1 1-1.4 1.6-3 2.2-4.6.8-2.2.9-4.5.3-6.9-1.2-4.6-2-9.3-2.5-14.1 0-.5-.2-1-.5-1.4-2-2.8-2.9-6-3.8-9.2-2.6-9.3-3.7-18.7-2.7-28.3.3-3.6.1-7-1.9-10.1-.3-.5-.5-1.2-.8-1.8q-5.4-13.1-10.9-26.2c-3.2-8-5.1-16.3-5.7-24.9-.4-7.5.5-14.9 2-22.3 1.6-7.9 4.3-15.4 7.4-22.8 4.3-10.5 8.5-21.1 11.5-32 .2-.5.3-1 .4-1.5-4.7-1.4-7.8-4.6-10.2-8.6-.5-.9-1.2-1.7-1.7-2.6-2.4-4.1-6.1-6.2-10.6-7.1-4.4-.9-8.7-2.1-12.4-4.5-.1-.1-.3-.1-.6-.1zM50 198.5c-2.1 3.2-3.6 6.7-5 10.2-.3.7 0 1 .4 1.4q1.3.9 2.5 2c.5.4.6.9.3 1.5-1.6 4.4-3 8.9-5 13.1-.3.7-.6 1.4-1.1 2-.4.6-1 .8-1.7.3-.5-.3-1-.8-1.8-1-.1.1-.2.3-.3.4-.6 2.9-1.2 5.8-1.8 8.8-.2.8.2 1.2.8 1.7 3.1 2 6.5 3.3 10.1 3.9q4.2.8 7.9 2.7c.3.2.6.4 1.1.3q0-.4.1-.8c.4-1.9.3-3.8.4-5.8 0-.7.2-1.1 1.2-1.1 2 .2 4 .1 6.1.3 2.8.2 5.6.2 8.4 0q2.6-.3 5.3-.4c1.3-.1 1.5.2 1.4 1.5-.1 1.4-.5 2.7-.9 3.9-2 6.2-3.3 12.5-5.1 18.6-.2.7-.1 1.1.7 1.2 5.2.7 10.3.6 15-2 1.5-.9 3.1-1.8 4.6-2.6.7-.3.9-.7 1-1.5.1-2 .3-4 .8-6 .5-2.4.7-2.6 3-1.8 4.2 1.3 8.4 2.4 12.7 3.4 1.7.4 3.1 1.1 3.7 2.8.1.2.2.4.6.4.7-4.8 1.1-9.7 1.5-14.6.1-.6-.2-.9-.8-1.1-2.3-.9-4.4-2.2-6.6-3.3-2-1-4-2.2-6-3.3-.9-.5-.9-.9-.2-1.7.4-.5 1-.9 1.5-1.4q5.5-5.2 11-10.3c.6-.5.9-1.1.8-1.8q-.3-2.9-.4-5.8c0-.7-.3-1.1-1-1.2q-1.3-.4-2.7-.5c-4.7-.2-9.3.2-13.9.8-2.9.4-5.8 1-8.7.3-.5-.1-.7.2-1.1.4-2.7 1.7-5.5 3.4-8.4 4.7-5.9 2.6-11.7 5.3-17.8 7.5-.5.2-1.1.6-1.6.2-.7-.6-.2-1.2 0-1.8 1.9-5.3 3.6-10.6 4.8-16.1.6-3 1.2-2.8-2.2-3q-.1 0-.3-.1c-4.2-.1-8.1-1.3-11.3-4-.6-.5-1.2-1-2-1.3zm65.9 10.8v-10.5c.1-5.5 1.1-10.8 3.4-15.9.7-1.6 1.3-3.2 1.9-4.8.5-1.3.5-1.3-.5-2.2-3.8-3.2-8.3-4.8-13.2-5-3.8-.1-7.3-1-10.6-2.7-1.6-.8-3.2-1-4.9-1-2.9 0-5.7.9-8.4 1.7-2 .6-4 1-6.1.8q-2.6-.3-5.2-.8-2.3-.4-4.7.1c-2.3.6-4.4 1.9-6.5 3-.9.5-1.3 1.2-1.5 2.2-1 6-2.6 11.8-5.6 17.2q-1.2 2.3-2.5 4.5c-.6 1.1-.6 1.1.4 1.7 1.1.8 2.3 1.4 3.4 2.1 1.7 1.1 3.4 1.6 5.3 1.8 2.5.1 4.9.4 7.4.6 4.1.4 8 1.4 11.7 3.4 1.5.8 3.1 1.5 4.7 2.3 4.3 2.2 8.8 2.7 13.6 1.9 5.9-1 11.8-1.5 17.9-.4zm-24.8-86.7c-2.4 0-4.4.4-6.4.8q-7.2 1.3-14 3.9c-1.2.5-1.8 1.2-1.9 2.4 0 1.1-.2 2.1-.5 3.1-.3 1.3-.6 1.5-1.8.8-.7-.5-1.6-1-2.3-1.5-.7-.5-1.2-.5-1.9 0-2.4 1.6-4.3 3.6-6.1 5.8-.4.4-.3.9-.2 1.4.6 2.5 1.3 5 1.8 7.5.6 2.5 1.1 5 1.6 7.4.3.2.4 0 .5-.1 2.6-2.3 5.3-4.3 8-6.3l1-.8c.7-.5 1.2-.2 1.6.5q.1.3.3.6c1.3 3.6 3.2 7 4.9 10.5 1 2.1 1 2.1-.6 3.8-.9.9-1.8 1.8-2.7 2.8-.3.4-.9.7-1.1 1.4 3.1.5 6.1 1.2 9.3.7 1.9-.3 3.7-1 5.6-1.5 4.3-1 8.6-1.4 12.7 1 1.4.8 3.1 1.2 4.7 1.6.6.1.9-.1.9-.8-.3-3.4-.1-6.7-.5-10-.1-1.4 0-2.8-.1-4.2 0-.8.4-1.2 1.2-1.2q.8-.1 1.6 0 3 .1 6-.1 5.1-.3 10.3-.6c1.3-.1 1.7.2 1.9 1.4.3 1.4.4 2.8.4 4.2q-.2 5.2-.2 10.4c0 .3-.3.8.3 1.1.1-.2.2-.3.3-.5 3.2-8.2 6.5-16.5 8-25.4.3-2 .5-4 .8-6 .1-.8-.2-1.1-1-1l-2.4.2c-1.5 0-2-.5-1.4-2 .4-1.1.9-2.1 1.4-3.2.3-.6.1-.9-.5-1.1-5.8-2.6-11.8-4.4-18-5.7-.9-.2-1.2.1-1.4.8-1.1 3-2.2 6-3.3 8.9-.7 1.9-.7 1.9-2.6 1.9-4.8 0-9.6-.7-14.4-.8-2.6-.1-2.8-.5-2.3-3.1.6-2.9 1.3-5.9 2.5-9zM99 44zm0 0zm3.5 1.4c-1.3-.8-2.3-1.2-3.5-1.3.9.9 2 1.2 3.5 1.3zm20.2 129.3c.4-.8.7-1.5 1.1-2.2.1-.3.3-.7.1-1.1-.4-.7-.3-1.4-.3-2.1q0-6 .1-12.1c0-1 0-2-.1-3-.1-1.2-.1-1.2-1.3-1.2q-.8 0-1.6.1c-4.9.1-9.7.9-14.5.4-.8-.1-1.1.2-1.1 1 .1 1.3.2 2.7.2 4q.1 4.6.1 9.1c0 .8.2 1.2 1.1 1.2h.8c4.1.3 8 1.2 11.5 3.4 1.3.8 2.5 1.7 3.9 2.5zM58 239.1c-.5 2.4-.2 4.8-.8 7-.1.4 0 .8.4 1 2.2 2 3.6 4.6 5.1 7.1 1.1 1.8 2.3 3.5 3.9 5 1.4 1.3 3.1 2.3 5 3.1-.2-1.5.2-2.7.5-3.8 1.7-5.6 3.9-11.1 5.4-16.7.2-.8.6-1.5.3-2.6-6.6.9-13.1.5-19.8-.1zm9.5-34.8c-.5 3.4-1.3 6.4-2.2 9.5-.8 3-1.8 6-2.7 9.1 5.2-1.3 21.7-9 24.6-11.5-3.7-1.3-7.1-3.2-10.7-4.8-2.8-1.4-5.8-1.9-9-2.3zm-7-34.2c.6 0 1-.5 1.5-.8 1.2-.7 2.5-1.6 3.9-1.8 2.5-.3 4.1-1.8 5.6-3.6.8-.8 1.6-1.6 2.4-2.5 1-1 1.1-1.1.4-2.4-1.6-3.4-3.4-6.8-4.7-10.4 0-.1-.2-.2-.4-.4-2.9 2.1-5.7 4.3-8.5 6.5-.9.7-1.2 1.4-1.1 2.5.6 4.2.9 8.4.7 12.6 0 .1.1.2.2.3zm49.5-46.5c-5.7-.9-11.2-1.1-16.7-1.1-.8 0-1.2.3-1.4 1.1-1.1 3.1-1.7 6.3-2.3 9.5.9.4 1.7.4 2.6.4 3.6 0 7.1.5 10.7.6 3.2.2 3.2.2 4.2-2.8 1-2.5 1.9-5 2.9-7.7zm6.7 97c-4.2 4.2-8.2 8.2-12.6 12.1 4.2 2.5 8.4 4.6 12.9 6.5.6-6.3.2-12.2-.3-18.6zM75.9 440c2-12.6.1-24.6-4.9-36.2-1.1 12.5 1.4 24.4 4.9 36.2zm38.4-182.4c-.2-.5-.6-.9-.8-1.4-.5-1.3-1.5-1.7-2.7-2-3.5-.9-7-1.9-10.5-2.9-1.2-.3-2.5-1.4-3.4-.7-.9.6-.8 2.2-.9 3.4-.2 1.2-.7 2.4-.3 3.7 1.8-.5 3.4-.5 5.1-.4 1.8.1 3.5.5 5.2.9 2.2.4 4.3.7 6.5.2.7-.1 1.3-.2 1.8-.8zm-39.4-231c1.1-1.3 2.4-5.2 2.4-6.4 0-.6-.3-.8-.8-.9-2.2-.2-4.4-.3-6.7 0-2 .2-3.7 1.2-5.4 2.4q-1.1.7-1.5 2l-1 3.6c-.1.3-.1.7-.1 1 .1.3.2.5.6.6.2.1.4-.1.5-.3q.8-1 1.3-2.1 1-2.4 2.1-4.8c.2-.4.3-.9 1.1-.8.1.6-.1 1.2-.3 1.8-.4 1.3-.5 2.7-.6 4.1 0 .5-.1 1 .3 1.5.6-.5.7-1 .9-1.6q1.1-2.8 2.2-5.5c.1-.5.2-1.1 1-1 .1 2.2-.9 4.5.2 7 1.2-2.8 1.9-5.4 3.8-8 .1 2.6-.7 4.9 0 7.4zM44.1 211.3c-1.8 4.6-3.4 9.1-4.8 13.8-.5 1.7-.5 1.9 1.1 2.7.5.3.8.1 1.1-.4.2-.5.5-1 .7-1.6 1.4-3.2 2.6-6.6 3.7-10 1-2.8 1-2.8-1.8-4.5zM74.5 82.4c.1 2.1-.1 4.1-.8 6.1-.4 1-.7 2.3-2.1 2.3-1.2 0-1.6-1.2-2-2.2-1.2-2.8-1.5-5.8-1.3-8.8 0-1.1.1-2.3.4-3.4.1-.3.2-.7-.2-.7-.4-.1-.4.3-.6.5q0 .2-.1.4c-.6 4-.5 8 1 11.9.3.9.7 1.7 1.4 2.4 1 .9 2 .8 2.9-.2.7-.6 1-1.4 1.3-2.3 1.2-4.6 1.1-9.1-.5-13.6-.3-.8-.7-1.5-.6-2.5.1-.6-.1-1-1-1.3-1.9-.7-2.7-2.3-2.9-4.2-.3-1.8.4-3.2 1.9-4.2q.3-.2.7-.3c.3-.2.4-.5.3-.8-.2-.3-.5-.2-.8-.1-1.6.6-2.7 1.7-3.1 3.5-.5 2.6.4 4.7 2.2 6.5 1.7 1.5 2.8 3.3 3.3 5.4.4 1.9.7 3.7.6 5.6zm-7.9-9.9c-1.2 1.7-2.8 2.9-4.3 4.3-1.6 1.4-3.2 2.8-4.7 4.2-.5.4-1 .8-.7 1.5q.7 2.5 1.5 5.1c2.2-5.5 6.4-9.7 8.2-15.1zm59.5 3.6c0 2.1-.3 3.8-.4 5.5-.1 1.7-.5 3.4-.2 5.4.8-1.7 1.4-3 2-4.3 1.2-2.6 1-4.1-1.4-6.6zM55.2 84c-1.1 2.3-1.6 4.5-.3 6.7.3.3.4 1.1 1.2.7.9-.5 1.5-1.3 1.3-1.9-.7-1.8-1.4-3.5-2.2-5.5zm75.6 50.6c1 .2 1.9-.1 2.8-.2.4 0 1.1.2 1.1-.4.1-.9.6-1.8-.1-2.5-.5-.5-1.3-1-2-.9-.7 0-.6.9-.8 1.4-.4.8-.9 1.6-1 2.6zM72.4 63.3c-2.3 2.2-1.9 5.8.6 6.7-.4-2.2-.3-4.4-.6-6.7zM64.3 131c.9.6 1.8 1 2.7 1.6.4-1.2.5-2.3.7-3.6-1.3.6-2.3 1.2-3.4 2zm-5.9-39.3c-.8.2-1.1.6-1.5 1.2.4.5.8.9 1.2 1.5.8-.9.5-1.7.3-2.7z" class="s1"/>
  <path d="m72.7 34.1.2-.2c.1.3-.1.2-.3.2h.1zm49.9 39q-.1 0-.2-.1c.2-.2.2 0 .2.2v-.1zM99 44v-.1l.1.1z" class="s2"/>
  <path d="M61.2 339v.4c-.2 1-.9 1.9-1.6 1.8-.7-.1-1.4-1-1.4-2v-.3c.1-1.3.7-2.2 1.4-2.2.6.1 1.5 1.4 1.6 2.3zm2.8-7.7v.2q-.1 1.8-1.1 1.9c-.7 0-1.5-.9-1.6-1.9l-.1-.1c-.1-1.2.5-2.1 1.3-2.2.9 0 1.6.9 1.5 2.1zm2.5 8.9c0 .8-.5 1.3-1.1 1.3-.9-.1-1.6-.9-1.5-1.8 0-.7 1-1.7 1.6-1.6.5.1 1 1.2 1 2.1zm3-6.3c-.2.5-.4 1.1-1.1 1.1-.6 0-1.3-.7-1.2-1.4.1-.6.4-1.1 1.1-1.2.5 0 1.2.7 1.2 1.5zm62.6-306c-.7-.3-1.5-.5-1.2-1.2.4-.8 1.1-.6 1.9-.4-.2.6-.9.9-.7 1.6zM32.8 43.5c.1-.2.3-.5.7-.4.6 0 .7.6.7 1.1 0 .2-.1.5-.3.4-.5-.1-1.1-.2-1.1-1.1zM137 33c-.6 0-1-.3-1.1-.8 0-.5.3-.8.8-.8s.9.4 1 .8c.1.6-.5.5-.7.8zM37.9 43.6c0 .4-.2.6-.5.6-.4-.1-.9-.2-.9-.8-.1-.4.1-.7.5-.7.6 0 .8.5.9.9zm-3.4-6.8c.4 0 .6.2.7.6 0 .4-.2.8-.5.8-.5.1-.8-.3-.8-.7-.1-.3.2-.6.6-.7zm101.8 1.6q-.1.6-.7.7c-.4 0-.6-.3-.7-.7 0-.3.3-.5.6-.5.3-.1.7 0 .8.5zm-4.7-4.4c.3 0 .5.1.5.4 0 .2-.1.4-.4.4-.3 0-.4-.1-.5-.4 0-.2.2-.4.4-.4zM47.5 343.6c0 .1 0 .4-.1.6-.3.5-.1 1.3-1 1.4-.6.1-1.1-.8-1.2-1.7q0-.3.1-.5c.1-.9.6-1.5 1.2-1.5s1 .7 1 1.7zm.6-7.3c.1.5 0 1-.7 1.1-.6.1-.9-.1-1-.8-.1-.7-.6-1.4-.5-2.1 0-.5.1-.9.6-1 .4 0 .7.2.8.5.3.8.8 1.4.8 2.3zm-.2 16c-.1.3-.1.6-.3.9-.2.4-.6.5-1 .1-.3-.2-.3-.6-.4-.9-.1-.9.3-1.8.8-1.7.8.2.8.9.9 1.6zm37.9-155.6c0-1.2.8-2.3 1.8-2.3s1.6.8 1.6 2c0 1.3-.9 2.2-2 2.1-.9 0-1.4-.7-1.4-1.8zm14.4-124.3c-1 3.5-5.2 5.3-8.3 3.8-.9-.5-1.7-1.2-2.4-2-1.2-1.5-2.1-3.2-2.7-5-.2-.5-.5-1.1.1-1.4.7-.4 1 .2 1.3.7.5.7.9 1.4 1.3 2.1.6 1 1.2 1.9 2 2.7 1.5 1.4 3.2 1.9 5.1.9 1.1-.5 2.3-1.1 3.6-1.8zm-7.1-3.3c.4-.7 1-1 1.5-1.4q2.4-2.2.1-4.5c-2.1-2.1-2.6-5.5-1.2-8.1q.2-.4.6-.8c.3-.3.7-.3 1.1 0 .3.2.3.5.1.9-.4.7-.4 1.5-.5 2.4-.1 1.8.3 3.2 1.7 4.5 2 1.7 1.9 4.2.1 6.1-1 1-1.7 1.2-3.5.9zm-6.6-8.6c0 1.1-.8 2-1.7 2-1 .1-1.9-.7-1.9-1.7s1-2.1 2-2.1c.9 0 1.6.8 1.6 1.8zm17.2-.5c0 1-.7 1.6-1.8 1.6-1 0-1.7-.9-1.7-2-.1-1 .7-1.8 1.7-1.8.9 0 1.8 1.1 1.8 2.2zm2 5c.7.1 1 .4 1 .9s-.2.9-.8.9c-.6 0-.9-.3-.9-.8 0-.6.3-.9.7-1zm-23.6 3c.4 0 .7.3.8.7 0 .5-.3.8-.7.8-.6.1-.9-.3-.9-.8 0-.4.3-.7.8-.7zm-2.7 1.6q0 .7-.7.7c-.3 0-.5-.3-.5-.6-.1-.4.2-.7.6-.7.4 0 .6.3.6.6zm24.8-1q-.6 0-.6-.7c0-.4.3-.6.6-.6.5 0 .8.3.7.8 0 .3-.3.5-.7.5zm-8.8-16.2c-.2 0-.4-.1-.4-.4-.1-.3.2-.5.4-.6.4 0 .5.3.5.6s-.2.4-.5.4zm-1.3-.9c-.1.3-.3.5-.5.3-.2 0-.3-.2-.3-.3 0-.3.2-.5.4-.4.3 0 .4.2.4.4zm1.3-1.2c0-.1-.2 0-.5-.1-.1 0-.2-.2-.2-.3 0-.3.2-.4.5-.3.2 0 .3.1.2.7z" class="s1"/>
</svg>
